<mxfile host="app.diagrams.net" modified="2023-01-04T11:58:40.526Z" agent="5.0 (Windows NT 10.0; Win64; x64) AppleWebKit/537.36 (KHTML, like Gecko) Chrome/108.0.0.0 Safari/537.36" etag="WPLffsTN0zoH0WtC_u7_" version="20.8.0" type="github">
  <diagram id="C5RBs43oDa-KdzZeNtuy" name="Page-1">
    <mxGraphModel dx="2261" dy="796" grid="1" gridSize="10" guides="1" tooltips="1" connect="1" arrows="1" fold="1" page="1" pageScale="1" pageWidth="827" pageHeight="1169" math="0" shadow="0">
      <root>
        <mxCell id="WIyWlLk6GJQsqaUBKTNV-0" />
        <mxCell id="WIyWlLk6GJQsqaUBKTNV-1" parent="WIyWlLk6GJQsqaUBKTNV-0" />
        <mxCell id="z_6pDSbNV-KYUhVB-wk2-3" value="" style="edgeStyle=orthogonalEdgeStyle;rounded=0;orthogonalLoop=1;jettySize=auto;html=1;" parent="WIyWlLk6GJQsqaUBKTNV-1" source="z_6pDSbNV-KYUhVB-wk2-0" target="z_6pDSbNV-KYUhVB-wk2-2" edge="1">
          <mxGeometry relative="1" as="geometry" />
        </mxCell>
        <mxCell id="z_6pDSbNV-KYUhVB-wk2-0" value="Start" style="ellipse;whiteSpace=wrap;html=1;fillColor=#dae8fc;strokeColor=#6c8ebf;" parent="WIyWlLk6GJQsqaUBKTNV-1" vertex="1">
          <mxGeometry x="140" y="40" width="120" height="80" as="geometry" />
        </mxCell>
        <mxCell id="z_6pDSbNV-KYUhVB-wk2-1" value="USCC-&lt;span style=&quot;font-size:11.0pt;font-family:&amp;quot;Calibri&amp;quot;,sans-serif;&lt;br/&gt;mso-fareast-font-family:Calibri;mso-fareast-theme-font:minor-latin;mso-ansi-language:&lt;br/&gt;EN-US;mso-fareast-language:EN-US;mso-bidi-language:AR-SA&quot;&gt;21739&lt;/span&gt;" style="text;html=1;strokeColor=#82b366;fillColor=#d5e8d4;align=center;verticalAlign=middle;whiteSpace=wrap;rounded=0;" parent="WIyWlLk6GJQsqaUBKTNV-1" vertex="1">
          <mxGeometry width="110" height="30" as="geometry" />
        </mxCell>
        <mxCell id="z_6pDSbNV-KYUhVB-wk2-5" value="" style="edgeStyle=orthogonalEdgeStyle;rounded=0;orthogonalLoop=1;jettySize=auto;html=1;" parent="WIyWlLk6GJQsqaUBKTNV-1" source="z_6pDSbNV-KYUhVB-wk2-2" target="z_6pDSbNV-KYUhVB-wk2-4" edge="1">
          <mxGeometry relative="1" as="geometry" />
        </mxCell>
        <mxCell id="z_6pDSbNV-KYUhVB-wk2-2" value="Start upgrade device flow" style="whiteSpace=wrap;html=1;fillColor=#dae8fc;strokeColor=#6c8ebf;" parent="WIyWlLk6GJQsqaUBKTNV-1" vertex="1">
          <mxGeometry x="140" y="160" width="120" height="60" as="geometry" />
        </mxCell>
        <mxCell id="z_6pDSbNV-KYUhVB-wk2-7" value="" style="edgeStyle=orthogonalEdgeStyle;rounded=0;orthogonalLoop=1;jettySize=auto;html=1;startArrow=none;" parent="WIyWlLk6GJQsqaUBKTNV-1" source="z_6pDSbNV-KYUhVB-wk2-33" target="z_6pDSbNV-KYUhVB-wk2-6" edge="1">
          <mxGeometry relative="1" as="geometry" />
        </mxCell>
        <mxCell id="z_6pDSbNV-KYUhVB-wk2-4" value="Saving summary" style="whiteSpace=wrap;html=1;fillColor=#d5e8d4;strokeColor=#82b366;" parent="WIyWlLk6GJQsqaUBKTNV-1" vertex="1">
          <mxGeometry x="140" y="270" width="120" height="60" as="geometry" />
        </mxCell>
        <mxCell id="z_6pDSbNV-KYUhVB-wk2-9" value="" style="edgeStyle=orthogonalEdgeStyle;rounded=0;orthogonalLoop=1;jettySize=auto;html=1;" parent="WIyWlLk6GJQsqaUBKTNV-1" source="z_6pDSbNV-KYUhVB-wk2-6" edge="1">
          <mxGeometry relative="1" as="geometry">
            <mxPoint x="200" y="500" as="targetPoint" />
          </mxGeometry>
        </mxCell>
        <mxCell id="z_6pDSbNV-KYUhVB-wk2-6" value="&lt;b&gt;CONTINUE&lt;/b&gt;" style="whiteSpace=wrap;html=1;fillColor=#dae8fc;strokeColor=#6c8ebf;" parent="WIyWlLk6GJQsqaUBKTNV-1" vertex="1">
          <mxGeometry x="140" y="410" width="120" height="60" as="geometry" />
        </mxCell>
        <mxCell id="z_6pDSbNV-KYUhVB-wk2-12" value="" style="edgeStyle=orthogonalEdgeStyle;rounded=0;orthogonalLoop=1;jettySize=auto;html=1;" parent="WIyWlLk6GJQsqaUBKTNV-1" source="z_6pDSbNV-KYUhVB-wk2-10" edge="1">
          <mxGeometry relative="1" as="geometry">
            <mxPoint x="425" y="577.5" as="targetPoint" />
          </mxGeometry>
        </mxCell>
        <mxCell id="z_6pDSbNV-KYUhVB-wk2-48" style="edgeStyle=orthogonalEdgeStyle;rounded=0;orthogonalLoop=1;jettySize=auto;html=1;entryX=0;entryY=0.5;entryDx=0;entryDy=0;fillColor=#f8cecc;strokeColor=#b85450;" parent="WIyWlLk6GJQsqaUBKTNV-1" source="z_6pDSbNV-KYUhVB-wk2-10" target="z_6pDSbNV-KYUhVB-wk2-42" edge="1">
          <mxGeometry relative="1" as="geometry">
            <Array as="points">
              <mxPoint x="200" y="680" />
              <mxPoint x="320" y="680" />
              <mxPoint x="320" y="1070" />
            </Array>
          </mxGeometry>
        </mxCell>
        <mxCell id="z_6pDSbNV-KYUhVB-wk2-10" value="&lt;span style=&quot;color: rgb(23, 43, 77); font-family: -apple-system, BlinkMacSystemFont, &amp;quot;Segoe UI&amp;quot;, Roboto, Oxygen, Ubuntu, &amp;quot;Fira Sans&amp;quot;, &amp;quot;Droid Sans&amp;quot;, &amp;quot;Helvetica Neue&amp;quot;, sans-serif; font-size: 14px; text-align: left;&quot;&gt;call &lt;br&gt;getAssignedPromos()&amp;nbsp;&lt;/span&gt;&lt;br style=&quot;border-color: var(--border-color); color: rgb(23, 43, 77); font-family: -apple-system, BlinkMacSystemFont, &amp;quot;Segoe UI&amp;quot;, Roboto, Oxygen, Ubuntu, &amp;quot;Fira Sans&amp;quot;, &amp;quot;Droid Sans&amp;quot;, &amp;quot;Helvetica Neue&amp;quot;, sans-serif; font-size: 14px; text-align: left;&quot;&gt;&lt;span style=&quot;color: rgb(23, 43, 77); font-family: -apple-system, BlinkMacSystemFont, &amp;quot;Segoe UI&amp;quot;, Roboto, Oxygen, Ubuntu, &amp;quot;Fira Sans&amp;quot;, &amp;quot;Droid Sans&amp;quot;, &amp;quot;Helvetica Neue&amp;quot;, sans-serif; font-size: 14px; text-align: left;&quot;&gt;check &lt;br&gt;Sweetener promo &lt;br&gt;is PCT&lt;/span&gt;" style="rhombus;whiteSpace=wrap;html=1;fillColor=#d5e8d4;strokeColor=#82b366;" parent="WIyWlLk6GJQsqaUBKTNV-1" vertex="1">
          <mxGeometry x="95" y="505" width="210" height="145" as="geometry" />
        </mxCell>
        <mxCell id="z_6pDSbNV-KYUhVB-wk2-14" value="Yes" style="text;html=1;align=center;verticalAlign=middle;resizable=0;points=[];autosize=1;strokeColor=#6c8ebf;fillColor=#dae8fc;" parent="WIyWlLk6GJQsqaUBKTNV-1" vertex="1">
          <mxGeometry x="345" y="562.5" width="40" height="30" as="geometry" />
        </mxCell>
        <mxCell id="z_6pDSbNV-KYUhVB-wk2-17" value="" style="edgeStyle=orthogonalEdgeStyle;rounded=0;orthogonalLoop=1;jettySize=auto;html=1;startArrow=none;" parent="WIyWlLk6GJQsqaUBKTNV-1" source="z_6pDSbNV-KYUhVB-wk2-31" target="z_6pDSbNV-KYUhVB-wk2-16" edge="1">
          <mxGeometry relative="1" as="geometry" />
        </mxCell>
        <mxCell id="z_6pDSbNV-KYUhVB-wk2-41" value="" style="edgeStyle=orthogonalEdgeStyle;rounded=0;orthogonalLoop=1;jettySize=auto;html=1;startArrow=none;fillColor=#f8cecc;strokeColor=#b85450;" parent="WIyWlLk6GJQsqaUBKTNV-1" source="z_6pDSbNV-KYUhVB-wk2-43" target="z_6pDSbNV-KYUhVB-wk2-42" edge="1">
          <mxGeometry relative="1" as="geometry">
            <mxPoint x="640" y="1010" as="targetPoint" />
            <Array as="points">
              <mxPoint x="680" y="1070" />
            </Array>
          </mxGeometry>
        </mxCell>
        <mxCell id="z_6pDSbNV-KYUhVB-wk2-15" value="PCT &lt;br&gt;Stacking criteria validation&lt;br style=&quot;border-color: var(--border-color);&quot;&gt;&lt;strong style=&quot;border-color: var(--border-color); background-color: initial;&quot;&gt;&lt;a style=&quot;border-color: var(--border-color);&quot; data-issue-key=&quot;USCC-21374&quot; href=&quot;https://deljira/browse/USCC-21374&quot; title=&quot;UI-Upgrade Device Flow -PCT Stacking criteria validations&quot; class=&quot;issue-link&quot;&gt;USCC-21374&lt;/a&gt;&lt;/strong&gt;" style="rhombus;whiteSpace=wrap;html=1;fillColor=#d5e8d4;strokeColor=#82b366;" parent="WIyWlLk6GJQsqaUBKTNV-1" vertex="1">
          <mxGeometry x="430" y="517.5" width="140" height="120" as="geometry" />
        </mxCell>
        <mxCell id="z_6pDSbNV-KYUhVB-wk2-24" value="" style="edgeStyle=orthogonalEdgeStyle;rounded=0;orthogonalLoop=1;jettySize=auto;html=1;startArrow=none;" parent="WIyWlLk6GJQsqaUBKTNV-1" source="z_6pDSbNV-KYUhVB-wk2-35" target="z_6pDSbNV-KYUhVB-wk2-23" edge="1">
          <mxGeometry relative="1" as="geometry" />
        </mxCell>
        <mxCell id="z_6pDSbNV-KYUhVB-wk2-26" value="" style="edgeStyle=orthogonalEdgeStyle;rounded=0;orthogonalLoop=1;jettySize=auto;html=1;" parent="WIyWlLk6GJQsqaUBKTNV-1" source="z_6pDSbNV-KYUhVB-wk2-16" target="z_6pDSbNV-KYUhVB-wk2-25" edge="1">
          <mxGeometry relative="1" as="geometry" />
        </mxCell>
        <mxCell id="z_6pDSbNV-KYUhVB-wk2-16" value="Show save more modal" style="whiteSpace=wrap;html=1;fillColor=#d5e8d4;strokeColor=#82b366;" parent="WIyWlLk6GJQsqaUBKTNV-1" vertex="1">
          <mxGeometry x="440" y="710" width="120" height="60" as="geometry" />
        </mxCell>
        <mxCell id="z_6pDSbNV-KYUhVB-wk2-20" value="" style="shape=image;verticalLabelPosition=bottom;labelBackgroundColor=default;verticalAlign=top;aspect=fixed;imageAspect=0;image=data:image/png,iVBORw0KGgoAAAANSUhEUgAAATgAAAGsCAYAAABJiLs/AAAAAXNSR0IArs4c6QAAAARnQU1BAACxjwv8YQUAAAAJcEhZcwAADsMAAA7DAcdvqGQAAIOuSURBVHhe7d0HlGVF1TbgGmDIOech5xwlCCIooIigZImCCQFRUJGckaCiIirJjxFRkV9MgBkliaBIkJyD5Jzz+c9TdI2H6+2enpnuntt39rvWWbf7hIq73tq1q2rXiMMOO6xKNUaMGOFnzG+B/1vvBQKBwMRCVVX5Kih/N+8VjDj88MPHEFyT5CabbLIxf7t8XJ4HAoHAxECT3MrfzavcL8gEVwjNVQit/A3+9lEQXCAQmJhoklm53nrrrXf8lgtGHHnkkZngJp988kxkfpv/F1LzGwQXCASGEoiq8E6TvFxvvvlmJrVy+d/9JtGNOProo6smuU0xxRT5t1yF2Eokfn1Y/g4EAoGBRivHFMJqXm+88UYmNZe/C8kVwvPOiGOPPbZCaq6RI0fma5pppkkzzDBDmnrqqfP9JpEFqQUCgaFAJqgGwZVf5PX666+nF154IV+vvfZa/t9VCM+Vvz/++OMrpDbllFOm6aefPs0999xp/vnnT3PNNVeaaaaZ/ofgAoFAYGICcb300kvpscceS//5z3/y9fTTT6dXX301k1zR7BDh5JtuuunhyI3Gttxyy6Xll18+LbjggmnaaacdM0QNBAKBTgFOwlmzzDJLmmOOOTJ3Pf/88+mVV17JzxFguSajoXl51KhRaemll04zzzxzfikQCAQ6HcxpCy+8cFpmmWXSVFNNNWYOoUyQTuYfDOglNrdAIBAYTkBmiy66aJpzzjnHTI66ly//zD777GnWWWfNNwKBQGC4wSgUyRUNrpjWMsGZTKDqBQKBwHCFydExmlu5MJ1ZVEQXCAQCwxVMbEgNp43R4FpvBAKBwHAEDvsfggtyCwQC3YLCZ+WKWYVAINA1KMRWEBpcIBDoOhReywQXCAQC3YBWhW0y2xkCgUCgW9DktLDBBQKBrkUQXCAQ6FoEwQUCga5FEFwgEJggsHnxz/b444+nhx9+ON13333p3nvvTQ899FD22caVEf9sEwMjfvCDH1SrrLJKWmGFFXpuBQKBQN9AakgLqSExF0J78cUXxxCaPe62T3GeO88882TfbX6Lt4+BBkeXP/3pT3Ma+IbjAHPyLbbY4nCRSkQgEAiMDcjrmWeeSbfddlv65z//mW688cbsSZdHonnnnTctsMAC+UJoCI633dtvvz1rd4iH54+yb3QgwYPvTTfd9A6vvqHBBQKBfgNpPProo+lf//pXHoryqrvYYovlow44yy2ewIGW9/LLL6dnn302f3P33Xdn9+KUqVVXXTV7DufoY6DQToMLG1wgEOgXEJYh6RVXXJFtbLzobrjhhmnllVfOGhvHuU2vRBbcIjwjREchbLDBBmmdddZJTzzxRA7jnnvuyaQ0mAiCCwQC/QLN6Morr0yPPPJI1sDWWGONPAzlZHJsQHy0PSNFREe7uuqqq7JmZ2g5WAiCCwQCYwXtjb2N3W3ZZZdNK620UtbOaGmeuXpDee5Chosvvnhac80105NPPpmuueaafOzfYCEILhAIjBUmCP7+97+nRRZZJGtu5fwWpFXOJ22niXnOHmZmtTxHcksuuWRaccUVs13OcHewEAQXCAT6BGL629/+licYVltttXx+cgHyuuyyyzL50ciaJIfcENt1112XLr300jybWuAELDY8djv2OGEPBoLgAoFAn3juuefSAw88kCcSzHw2geBuueWWPNREciYQCsmx2SE35HjzzTfncJpgv3NcKTscchwMBMEFAoE+YTmISQG2t9ZlHbQ59jTDTuvhkBxNzfKQa6+9Nv/PxuZbp/c1YeLBkNcvkhwMBMEFAoE+QSuzeBYZtQLhrb766mmttdbKJHf99ddnjQ2xGbr6DrmtvfbaeTjaCktIfPfggw/23BlYBMEFAoE+YZ8pe5qtV+3AnmbZCKKzS8Fs61//+tf8zdJLL53WXXfdvESknXPd6aabLu9oYKsbDATBBQKBPoHg2s2QNmFWdYkllkizzTZbz523iY/21hsxNtFqnxsoBMEFAoE+4VB42ldvJFdmS++88868R7XsNWV7swe1OfHQinK/OTM7kAiCCwQCfQL5mAjoTcui4ZktNZPK5ma3gokHRPfvf/+77RKSgqIdGsIOBoLgAoFAnzD7aSLA3tFWIDQ2N9uuaGz2nJpQeNe73pUnHhBjITmLgVthAbH9qLyQDAaC4AKBQJ9YaKGF8pATUbVujucpxCLeMltqMz2vIt436YDokBzvI8isCYt7kabf5ZZbrufuwCIILhAI9IkZZ5wxa1jWw1nOweZWYD/qUkstlbhcM1uK3MpsaZldpdHZmuVZgTB4JkFwNMTm5MRAIgguEAiMFTQxZGaoyRZXSM69D37wg+m9731vdnjZCs9pcptttlneuQC+tRDYwmA2OFrfYCEILhAIjBW2afEgwi25CQX2tEJyZllpa73BM0RnvZtv7Iowu2rWdeGFF06LLrpoz5sDjyC4wHjhrrvuyn7Bepv+D3QfaGIIiVtw2leT5PoLtjrEZmLCzgab9822DhaC4ALjhT333DMde+yx2QV1kNykActFDCfZzP7xj3/ky/KP/njlNZFgQsJExZ///Oc88WApia1ag3EATUEcOhMYL/ziF79IF154YbalGLrYclOcHzZB+Am2JQT2LXqn3ZadQOdDvaln5y+oU1qcmdFmvSKrUr9lOMpmpyO0R9VyElzznve8J+9tHUhy09G2HjoTBBcYLzA6c1R48cUXZ5Lj20sPz30OIbvhhhvGbLj+7W9/m3t7gkfODEmC5IYv2NPMqrK9mQlV18wVvIi4uD/yP/Lj0NJzy0TUv3Vy7373uwdl3VsQXGDAYOmAdU965t/85jfZ95e1TLbqHHPMMemCCy5Iv/71r/NwxJmZCA7hkTM+xYLkhjdMHJh4MFwlC7Q1pHb//fdnGxtiQ360N1qfiQQefNncEORgoB3BxbGBgfEGgeLI8IQTTshEttVWW6UddtghEx7hQmYagF9rqE477bT83Re/+MX0gQ98IGsAgeEP5GbCQefGFEGLd89iX8NXBOhidxtMILU4+DkwYKCBITCanAWbv/rVr7JQffSjH829tY7Tdh29t4We1klxT33JJZfk1fG8udoCFBjeIAc0Ol5D1PGcc86ZL39b3KsjG8yJhIIYogYGHIRIj2kJAZvc7373uyxkhqOWkhiOIkE9OXc6hP4vf/lL+vnPf559hQXJBQYK7QgulokEJgi27hxyyCHZwaEhKOMxcrOQ8/TTT0/77rtvXq0O7G7bbrttOuigg3KPv/fee6ff//73+Xnr7GsgMBAIggtMENjgTP+bSDCLajRgSHrAAQdkre4Pf/hDnlVrYvvtt09HH310tsscdthheSZ2fBaNBgJjQxBcYILAmSFyYlNjZ7G2iR3OSnWLQBFeO1/82223XdbkDF1POumkPLQ11A0EBhJBcIEJAu3MUgAEZ5bsYx/7WNbgrH1DdGZMeYowq2XZgGUlbCSwxRZbpP322y/bTk488cQ8XPVeIDBQCIILjDcYccvSgPnnnz9rcNzjIKvjjz8+nXHGGWn33XfPq94vuuiifN8aOUQH7HCbb755+sIXvpCNwmx5f/zjH4PkAgOGILjAeIMmhtysd+JlAkwkmB3lQmeNNdbIdjneJ3bcccc8CYG8mksGLCGwrORLX/pS1uQQYpBcYKAQBBcYbyC2smGaPc3sKU3MuijD1bJToWzI32CDDdLnP//5bJOz2t3GaxogwjO7SoMz8UCjY5Mrs6+BwPgi1sEFJgiGpojObOnll1+e7W+WijTXtv34xz9Ot912W9ptt93y4SK2cJ177rmZxAxXrYWzSNQ+RXJoVvbqq6/O23rmm2++nlACgb4RC30DAw52NENSQ1GEZWM1UkJ8ZkjBWjl++23EtsjXe2WiwZ7VxRdfPO98AJv2TVwgwbIbIhDoD2Khb2BQYFi5yy67pEMPPTR7kDCZYOGvWVR4//vfn2dXnZ1ZFvhaGmIW9amnnsobtAuKBwobspFmIDAhCIILDAiQkbVtBx54YLa5HXfccenKK6/MvagRwpe//OV0zjnnpO9+97tpjz32yJMRP/zhD7M9zr5FoOkdfPDBebM+f2FcMgUCE4IguMCAwYzoNttsk8nM5vuvfOUr2Q+YyQabrq2VM3w1lNh1113Ttddem/93GAlSRG5nn312HpYKg20uEJgQBMEFBgyIrElytm8ZjvIgUmxuYIeDDfg777xznjE1wXDUUUdlL8Hrr79+Hr7yElxmYQOB8UVMMgQGHIafzsoss6tmRIv2ZnaVNmcywZ5UREdrM9lgSMq33Morr9wTUiDQf8QsamDIUGZXTUDYglVmV3mBRXL+tjj45JNPzpobcjNEtRMiEBgfxCxqYEiB3AxDLeBtzq7a/cDmRls7//zz844HQ9rQ3AIDjdDgAoMKw9Xi6NLsqEkHkwqnnHJKOu+887LHX8tLTCyE48vAhCA0uMBEgTVtW2+9dd5vyr2SSQjD0nXXXTdvvrdjIcgtMBgIDS4wJCguy53NYGJhww03zMtI2OkCgYFAOw0uTtUKBAJdAaTWeqpWDFEDgUDXIgguEAh0LYLgAoFA1yIILhAIdC2C4AKBQNciCC4QCHQtguACgUDXIgguEAh0LYLgAoFA1yIILhAIdC2C4AKBQNciCC4QCHQtguACgUDXIgguEAh0LYLgAoFA1yIILhAIdC2C4AKBQNciCC4QCHQtguACgUDXIgguEAh0LYLgAoFA1yIIrgtQVVU+Is0pQk4TcmyaI9Q6FU4/co0N8uAUfPkLBMYHQXDDHEjgqaeeSjfccEP6/e9/n37961+nv/3tb+mee+5Jzz77bCa+ToOzK51wPzY8/vjj6dJLL82kHQiMD4Lghjnuvvvu9M1vfjN9/vOfTwcddFA65JBD8gnye++9dzrjjDPy807DOeeck4488sj0/PPP99z5XyDmSy65JB1xxBHpscce67kbCIwbguCGMZ577rl08MEHp29961vp8ssvTw8//HC+R5u7+OKL04knnphGjx7d83ZngDZ2xRVXpN/97ndZ2+wNTzzxRPrtb3+btdGbb765524gMG4IghvG+OMf/5iJDKktvfTSaf/998+a0bbbbpuWWWaZNPXUU6eFF1645+3OwF133ZWH1OyE3/nOd/Ip5K0w7L7++uszadPkEHYgMD4IghvG+Oc//5k1oimnnDJts802eWi6xx57pB/84Afp7LPPTl/5ylfSDjvs0PN2Z+CRRx5JL7/8cv77tttuy8PQ5iSCvw1dETcyhH//+9/5NxAYVwTBDWPMMsssabLJJssaj+Gpq8w6rrbaaulTn/pU1uI6CSY/itZmEuQnP/lJevLJJ/P/BXfccUe64IILev5L6R//+EdHzwoHOhdBcMMY6667bpp99tnzcO+Xv/xlnmxgs6IludcKxPLoo4+mBx54IN1///3poYceysNb5FFmYz1/4YUXxmhV7j/zzDNj7heisSSF8V9Y//nPf9LTTz89VhIS5u233541tBEjRuTh51VXXZWuvvrqMd+6d9FFF6X77rsvv+MSR+uEhPelXdyeSx9ttqTbL00ReSJ96XvwwQfz+y+99FJ+pxmG8lBunpUwAsMfk2+xxRaHzzPPPGmuuebquRUYLph11llzw0caGrih3DXXXJMb6wwzzJCvaaaZpuftlC688MJ01llnpR//+MdZQ7rssstyA19yySWzJnjmmWemn//855m8FllkkTz0Ff7pp5+eCZQ2uNBCC2Xy9K37o0ePTn/4wx+y9jjHHHPkNAmrHRAQjc0SEdrnTDPNlNPtu7XWWiuHL+377bdfJlPkbb0coqrlNM0///w5HPdogueff3467bTTcl6EKd655547TTXVVJkokf25556bpphiivSrX/0qff/7389D4gUXXDCHJS5huO9X2SG9eeedN6cFuQaGD9SdJUjkk4yQAfaa6vrrr687rcBwRK11Vd/+9rerlVdeuZp55pmrulFW0047bVU34urYY4+tai2r582q+sxnPlPVZFLNN9981ZxzzllNP/30VU0iVU1QVU0+1UEHHZS/XXvttasbb7yxqgWmuuKKK6qaNKq6E6xqYqxq8qtqQqkWX3zxqiazatSoUTmMmrCq97///VVNGj2x/S9qrazaZJNNqEfV+uuvX9VElv9efvnlq8svv7yqBbL6yle+kvOwxBJLVDvttFNVd7z5nVNPPbUnlKq67bbbqm233TbHWxNRNd100+V01+Rb1aSbw6m11Zz/muSrVVZZJYdTE2pVk3l18cUXV7X2WtVD+FweLt/Kj3L77ne/W9UNpCe2wHBBTWzVOeecU9UdVlWPZqoTTjihiiHqMAdNqCaudN5552WbW00WufeindQNPK+Fo5HBRhttlLbffvs803rAAQfkmVbLMX72s59lbW3jjTdOM844Y7ryyivzUg49YN3Ys5a14oorppoo8nBu1113zRrU6quvnk4++eQcv17zz3/+c/rRj36U42oHWl5Z0ya83XbbLdWknGoyTX/605/yENIECc1pzTXXzLPBnsMtt9ySf2lztFAamb/f+9735vdonNJ21FFH5QXCtbxnjZEGaka2Jsy08847p49//ON5aE9TpbUZtu+55555eF+Tbh6mKjfD9cDwRxBcF2DyySdPiy22WG7cho2Gc4Zrhnm/+MUv8mwkskJQG2ywQX4fMbrAEBepLLXUUunDH/5wHtIZSiIGw1pD3Q033DCTCGIxrDUMNNRDIH5rDSqTyl//+tccZjsgN4QK0ltrkmmrrbbKcUvncccdlwnG0BTZekfcUCYa7r333vT3v/89k9vmm28+Zphqzd+iiy6aid1wuonZZpstv2O9oJlm3yJw9jll4DsTHoattTaYibIQamB4IwhuGEODp2kgGX+PHDkyrbHGGumwww7LfwNtxm4GRnsk8OlPfzrvdvj617+eSQM0eEAEH/jABzJh0eIOPfTQbJyn/SBGxHfnnXdmImO4R2Zf+9rX0imnnJLYcZdbbrlsA2sH39AEy4wpDQ15IVTfsB+yl4E1ffVwN9vmaJSApOUTaZdZ2A996EPZxoiwV1hhhWwfhFtvvTX/FginECUgs6Kh0fLkwWVbmLzTgoUZGP4IghvGQD4nnHBCXvOGxJCHe80ZVKRk+GkIiEBoUYjrmGOOyYb9Jmh9iGe99dbLhGQ2k7F9k002yeQFyIjGRdPZeuut81Yql0XGiHOvvfbK77XCMJlmhJykCRkhEWSy9tprZw2TZuiecJGSCQvxSZfvaG/SQ3sEWpYZXs9obvIONMC+4Hsap3zQ3g488MB09NFH510hNDxlY+IlMPwRBDeMYZjFxsZmhFjYkcwIarBIDjEsvvjiubEaGrqnUa+00kppgQUWGEMUTSAWQz8aGRi2WSxc3n3Pe96Th3W0PgSDmNj8zGLSrmhS7UD7spwDzFIWjcrf7GjF1iZd2223Xf4baFS0UfHQ8rxPw3OPLU7+2dPk3QyatNFC+4IVA6uuumomaR2DdCFOGqYwDMVps4EuQMyiDl+cf/75VU0oVT1Mq2oyy7OJNXFUtYZU1ZpQVWtd1U9+8pM8I3jhhRfmmcK6yvOs4uqrr17VZFHVxFXVWltPiG+j1oqqmuTybObhhx/+jhlFs6hmOs1g1pphVRNBvqTB7GutRfa8+U7ccccd1UYbbZTjX2eddaqaIHueVFVNXNW73/3uHN9JJ53Uc/dt1NppzlNNaNWRRx6ZZ0jroXEOwz3PalLLs6lmQQ844ICqHj5XNdnmtItv2WWXrR588MGeEN+GWeKNN94450EYZlLNssrLd77znZhFHYZoN4sa6+CGMcyC2rFAg6KBsEf5peW4b8jIxkWToxnRsAwDDemmn3769JGPfCQP50aNGpXtWQXCoDGx29GMvFtgCGnCoZanPDykEbKTGeqZXa2Jp+fNd4LNyzozaTQJYiZTumDOOefMQ2dpMxFgSF3gHrsfzZJ2KHzpNQEhfnkXJk11xx13TPvuu++Y9JqwMDNr8mSzzTbLGluBON2XLpqtYbM4aqLN2960CXkLDB+0Wwc3ggZndq23oUWg86FiLcGwdEOj13iRX5OYCq677rr8rk34SMmwDKH4pgnGd5vcTVq0AwFCgLZVIRgTEWVY2w4mJZCYnQLissi3SSB2VRhGt8oh2x2SIqyGsc10GiZfe+21mbjlhV0PURUYFsur/BlqN58VlDDY75A9W2O7cgt0PsjkT3/609yBk1+yEwQXCAS6Au0ILiYZAoFA1yIILhAIdC2C4AKBQNciCC4QCHQtguACgUDXIgguEAh0LYLgAoFA1yIILhAIdC2C4AKBQNciCC4QCHQtguACgUDXIgguEAh0LYLgAoFA1yIILhAIdC2C4AKBQNciCC4QCHQtguACgUDXIgguEAh0LYLgAoFA1yIILhAIdC2C4AKBQNciCC4QCHQtguACgUDXIgguEAh0LYLgAoFA1yIILhAIdC2C4AKBQNciCC4QCHQtOprgqqpKr776anrmmWfS448/np5++un00ksv9TwdPLz55ps5njfeeKPnzvDD888/n5599tkx13PPPZfLcmJAeb7wwgvprbfe6rkTCAwNJt9iiy0On2eeedJcc83Vc6szoFE88MAD6eqrr05//OMf05/+9Kd0++23p0ceeSRNP/30aZpppklTTDFFz9sDC0R6ySWXpBlnnDFfwxE//OEP09///vf0r3/9K1///ve/c0cx3XTTpRlmmKHnraHBQw89lP7whz+kRRddNE055ZQ9dwOBgYUO9Kabbkqvv/56Vk5wSEcSnIRdd9116fjjj0+//vWvszZCm7vvvvsy0V1xxRVp3nnnTfPPP3+abLKBV0LvvPPOdNxxx6XlllsujRo1qufu8EJdr2M6BPm54447MskQgHe9612Z6IYK6utb3/pW2mijjdIss8zSczcQGFi0I7iOHKLSNnbZZZf0xBNPpEMPPTT96Ec/SqeeemoaPXp0Oumkk9KIESMy8b3yyis9XwwsFA5tR0ENVyi7XXfdNV100UX5uvDCC9P++++fy/Kss87qeWtooJ4MkwlcoHOhfigS3YSOIzi2NqQ29dRTp+9///u516ellWvVVVdNp512WvrCF76Qh6qB3qEjmHzyycdcW265ZdZIr7rqqp43AoG3wUZ68cUXpyeffLLnTneg4wjusssuy8NTJDfffPP13P0vNNqZZ545D1GboG2pJMNZf7f2RLSy8rydsb08p7m9/PLLfRrEX3vttRyHcITXLk7f01wY94VbtBe/7pf/y0SK+AtMcJTe1DPajzjKN/2F96XVJRydh7jnnHPOnjf+W27y/eKLL74jDmkSr/iF0cyf90rehd18VtIt7y7fjg3eKeG1vl/KS720lmcrxNtuIkpe5K+g/C884TYh/tZ70qCsQN2Kp6RZGL2lx/1mPEWu/Pq/+Z3wxQPK0N9FLksd+N+vS5jiL2GUPHnXt806KWGVMvReSYvv2Um/8Y1vZFOGZ/LXDeg4G9xPfvKTXMhHHXVU1uL6AwLwz3/+M5Pj9ddfnysMCTJoI0SVe+ONN+aJA8NfDX222WbLExXguft/+ctfchjiN7mx2WabpUUWWSS/0wSj/X/+859s47r88stznIRJGdKUCI44GPnZn9jA3JcmAvm3v/0tT16wg4lbGDDrrLNmIfz5z3+eFlhggZwPYbA73nLLLfkb6e4PjjnmmLTQQgtlLddkzV133ZV+9rOfpWuvvTYdeeSRWZOTTmmXZ2ki5NLETiZuHY245Rdmn332NHLkyCz8bB0lXRqUb5SnckCWV155ZX6uXL1z9913p6233jrnsRXKRP0p/1tvvTXXp/emmmqq/Fz6yjvSKbxpp502l4X6beKGG27IZb7EEku8YxLqtttuS5deemm2q0q/uvvrX/+a/vGPf6SHH3445036hSe/N998c1p88cV7vn47DcpLnNLiO+VKppShd4s8FahLsqQcrrnmmvToo4/m75Uxkvnzn/+c5phjjpwXkHdyuthii2UiEqf3pJs8kh/yIm333ntvnnwjW2zR8uo+WVLHTz31VH6/5Mm7wlKn3vEd2ZAek2rS6DIBJZ3KSLjDCeqn4ycZzj///EwOn/jEJ/5nllQDNNHw2GOP5V5aBcnU//t//y995zvfyRV4//335wokNIROg0MSJ598cn6m4hnbqeIrrrhibrCes+3dc889ubH6JSzbbLNNW4L77ne/m37wgx9kgSTsGpzGwnivoQvDLObvfve7HL7G9atf/SrPIhJuaSVYwpanAw44IAvWCiuskB588MH0qU99Ku200045fOk2NJcmDX+NNdboSUXfQHDKQ9yGpC4Ess466+R8IUuC8OMf/ziTn7L2jvJda621Mkl99rOfzYKurNUJ0pBOJHPiiSfmvGtw7KE0itVWWy2/qw7Z+pSx8taoPG9HcML3vfISh8alfjTKpZZaKqfrhBNOyO8oZ3lSX9L6vve97386QWX2pS99KZsyFlxwwXyPsKtfDf/DH/5wJjB14F2NW1jKd9lll80ypX4RgvQWyC+y8A5CPProozPpSLN8tksL4jv22GMzmSoH8ciPekaOhx9+eFpllVXGjFTOOeec3Lltt912OQ7PkTV7qronP+5/7WtfywRL05K3ZZZZJufle9/7Xk6LNvH73/8+f7f00kvndH/lK1/J8qh+5Rl5It0PfOADWV6973958JwcC3c4oR3BaahVXRE1D3QG6oqoagGo6sbTc+e/OP7446vVV1+9qgu+2nHHHau6MVR1D1nVQld9+9vfrmriq2rNqqqFqtpwww2ruoKrurKq3Xffvdp3332ruteqaoGs6oquanKrfvGLX1R1g8nPP/axj1V1Q8/Pa+GuVl555fzbDjUBVTV5VnVDy+/XvW61wQYbVOeee25VF3JV97g5/lpjqmqByvG+//3vr/bYY4+qLvycliOOOKKqG3c1evTonJ+aTHJY6kP+6wqqLrjggmrTTTetai2hqgW7qoW3JwVjRy3U1ac//emc13LVmltVa3VV3XCqmphyWh955JGq1nqqWjCqs846q6q11qruCKq6wVS1kFc1WVV1Y8xx1ySV0/ze97632n///XN51ZpELm/lUTfCqibUaqONNsr1Ic3ydOaZZ+byVFetqDW8asstt6xqIs91pw6/9a1vVXXDy+mCrbbaqtp4441zGoV30UUXVUsuuWRVE1Z+3kSt+VQ1QWf5qAkg35OXmixzfZCHL3/5y1XdgVY1Yebw6sae6+/000/P76vf9ddfP/9dUJNdrhuQj/XWWy/nse6gchh1Y8rPCpTThz70oapWIHL88kWeyJx35UW9151OzxdVdeCBB2b5BnEoM3VFzpW/vPmefNTaVo63Js4s57vsskv+Xp2oP2lVTzUJ5/Ck1zs12ebvfvOb31S1hpfLmEySYXkma56ry+EG+ag7ier73/9+9c1vfrOqO8aq42xweg1LG6jqdZp77r6NddddN+29995ZU9LT0x6o77SkvfbaK6v7bHOM6Z7TTGgUev6acHIPaChSk01aaaWVsiagl9P7ffzjH88aled6r7Gt1xIPbcr7hj1+DaGkWc9N09CbUvul0bCDtkYzqYU4v6MHNmzceeedc29jeEUT/MhHPpKHtIaYenzaIq1D2K1l0hdoQPJarkMOOSTVRJG1K9os7Yl2JQ0uaZVmZUL7UWaW6ujd3Rc3DZMmSNORVsMs0GMa9vhWvbznPe9Jc88995jy7A3SYThWN8Zcpupw8803z3WqPAqERzaERws1/GImaAUNpO48suZD06Q50g5pSTVRZk1KfQtP+QiP5rn22mtnDc/7/YG81QSUjH6E0bpciaalnGjBNRnnfClPGmTru32BtsdmSvMtGqK6kd5StsqhDNvVCe2T/JN9mjgoz5rk8qjGdx/84AdzfdIuyRiNnswrV8+HchnRYKLjCE4lEBxDLMNEAlcatUrdYYcdMkEUaFgqXmMF76pMF9Lwvwbnt4TjGwTiOcIhcM3hRfPdcYGGCtLs77onzOq+a+GFF061lpjjlD/DbLNWBBHBaSgE0zCh7vlzOIjTMIWAm3RhBC7GYWp4yV9/4X2NzTfKBMkaAmt80sTuV9R7wxpDNZ0FEwC7neGuclZ2iAxZyJuGoSEbdovD/xpNSZt7vUFelL+rlLurWR+t0BjVb28wXGR+QNryyGRRa8/5WSk7cfgb/C298q3ukIY0l+fNv/sL5dTMEwjf/fI/2Wumoa9y6gvSLGwdaJE3+UHoOvW+YMjaDiWNwx0dR3B6J9qYXontRY/EXqFBIQNGWw2NgBMQDZNgsC94B6nQKtiKiuGXHYI2IEyaCG2I0du3eiya0i9/+csxhKT3ZV8aH0gTTYM2suaaa+b1fC5aiUkLjV98SMViYkKI3GiDNA6CqXECkkRulsTQ6tiNaLe0QxoKu1FfgogM5deFUJVBPcTJJCd9NBn5lzYdC41G+kGDURaf/OQn80U78z1NaPnll88ks/3226fddtst24yQN6O03l/d0GaLNkhL6A3yXt5X/r5RDtKuUxhfsOHKH5JGWDpHmGmmmbItka1G4y4anf+VO81U/SEL5Sv9nvsdFyhf2pdOi9z5vpAtkANaEo3YM7+u8YE2g8jEWQ/N0+67757rxKXT6g9Kvatz9UDOugEduZOBYJvlo80wzBqualyIC5EhJ0bk9ddfPzcqBlhaBmLyjaEn46mhjJk4DQhR+k44F1xwQY5D46R1EGqLYREprdEMoKGT4US7nQyGHhqgBl4gXcjCuj1DBUQsHMLCGE1bE2dp0ISesH/961/PZOFi+KW1bbLJJlngDDsMr+RLQyR0hFfaaF60MEZqpNgKawhpWr419JJmQ03DFtqWITqilEb3EJjGKG2GUspNByP9yFHn8u53vzunD0noEJSX7wxtNQwdhobLaI2kNFj1p06kxe6K1uGqRu790pEhOuGpO8Mo6VB26plpokB9Iy1D/3ZQF+KVZx0MAldO0iePyh6pqSfhkwHvGQpKExmRHu94V10Y1iJ3wz4yZiTR20yjeHROyomphNyREXGXEQh5VDeI1mys98iOCSZl4n0yrqMu8I0OnmyWeqft0gR/+9vf5vwITxmqu9LJyw/CdRWQkQ022CAP0WmW6gCZawNkrL8TWp0CZaC+yiiE4tORBKcxsIchMZoObUplaVh6JMSCBGgLBEmPS6C9I2PsTBoHQRWWb7yLIGReT43c2FGAkNKqkA7B0nDMJBIG4bYC+egxNfYChWuGTbrFS0swRNHIaVkahgZK2EB6NHZpBfeFS+vTI/vbpTHRgDRAwyx5lUd58TcBlsdWSE/RpqRD+NJAs1GuGofnGgeS8g5iUzbCRbiEXpkgQMM+BKcByiPilzflpSFrKOpKfSgbv5YyyCPt0/viLUs/CvyPpKQDGSsrjdrQuJChdNA6m50Nclc/8tAO8ifttLDPfOYzuY6Vp7Ki6ZB5nZSOQ3p1HGTAO+RMGSB2+ZNu8qBstBNlq7yMDLzbG4SnrMglbVyYOl75km/17L6ORvqYX/zqfAp5kZmmDGq0ZEHepQH8isu34lIv8udbsi/Pyou8ul+gXpG2e+rLhUDJL5tou3WonYx2BDfCbAstoMnsnYJil5DgzMZ1RRFAFVEqt0CGioHY8/Juge+LPa/05E0oHA3Jb3kmjNZ4oNhwmmG4J74imJ67V+4jGleBeDxrNnjpE19JewnDffe863lJq7hczXwWlLwUeEcYzTRACV+48uObku9SpiWvzbiUpzg8K2krz9wr33rmW/+Lu11aoZQVtJZVSV8pWyj5F347GPZZLqKRWoaj0TbRlCvhNOsBShl7Lv3SXerGM/nxnXt9oYRTyqmEVZ7JWylzeRaud7zvmXvNOKTH1a4s3fdNyZNwyrfSII5mGSI94ZQyVB7e840OZ2x56zQou5/+9Ke545I3eeloggsExhfMGSZm2DlpnoHuRzuCG14UHQj0AzSRc889Nw8hy4RNYNJEEFyg68D2x1jOjseWGJh0EQQX6DqY0TXLGEPTQBBcoOtgNtvavaH2XBzoPATBBboOZkz7Wr4RmHQQBBcIBLoWXUNwZW1SYMJg/ZVZSAtQraeaGJAGcavTgQC56CsszyZWXvuDsq7Qb2Dc0DUEx7DMueJgQQOwq8C2sG4VNA3dyn5by2z7sXfSWqKhBoK1bWlc93/2BlubrPDvDXZQlP2y4vau396gnOyuscthoEi4LyA3K/THd3/0pIyuITgC4OSmwQLh4p3Cns6+hH84A3nzqMxxIgeTnDXajznUsHVJWdunORA444wz8h7X3sDJZJEd27u++c1v5r2YvcFuAXtc7TO13WmwQfYsWibjgXFD1xCcRmGj8WCB1kajsD9xKHrtiQF7GGlufMdxj2RzPGcEQw0aC2KllQ8E7EftKyxkVjQ45GU/Jk22N0gfbyPKy/uDDfFxOEFjDIwbYpKhDfTKhki2fBTYIM3tM8eYffkqG85AAi5uk2zc5nqnbHifVMBJgl0QxeOHLT/Ir0mQNrtzvHrggQe2PWMi0DnoSIJj79Iz6rla4Zkhot+x2cKKcdb77bQu9zxrPvcNcjNMoRGKxzP3/TbDKfd8L55mesozvyU/7dLc17N2KOE13xV/Qevz8r93/PaGkg8N2nt9hVHug79LPgv837xXvuktDCjPe6v3VpR3hSeuVvQVVmtcrWkp6XPR0py/wK2U+yWukscmvC+8vmTBb2/xeiY/nreGHRg/dBzBmb3je8tmae60m1qUv/mqYgSnsjMGE7p2ICjsKcLgk8wwhOAUlOf8lrk8d4/2JmwuhNg8fF/iIezNoQsDvOGP8MsBJEUwxWUYw48aIzffXtJumFEEm21FXMUPl7yPDdJnCFXygpD4JivxSp+tSqUx0TxKmZmE6c1QLa3yLA00FvkuDd030qecpLcZhokXZdckEmlQVqVufMu9UwmDb7Sm7cp7hv/C5pvNb1+TG+RAWHyocfypHkv88ixNxX8gOx7bYkHJjzx6ru6a2plwiudi8kAWXdKkTORDHOra5ERrfQvP5VnJv1//e67TFC+nq5x7Nr/3TH74BSRX4g9MGDrOHxxHfU5e57RPo+QLi6NIDY8x2ClQKt8z73hmxXoRDkNIQmMGkLGcIBF2gm44wQccNzCen3nmmbmRcIzolCL+shDGKaeckslNo0MOyoevMwZ46eCDjdA6a0EY0iIMjYZvM4tM2ZDkwzscJvoVp4bNtxk3Nf/3f/+Xw0RInskL32p9AZmIUxrkR2PhMYO3YD7fEIRy4FdOw1Ze7GrSZoKEDZFfOPE34SQrnhg0bgSiUbPFaeicS5533nmZSMs5FjayczEkXyYEOE3kKw7EQ+NRnt7ha02dSavvlTlXPsIAZOjcCZ2AtCNi73O4KK2tQCCGkfJUiIevNeUubaeeemo+yV+9eObi34zHHHkzOaDcpZFskBFp5/ASgdHY+IhjiiALZIeNl2ZvbyvfazwjC9euCXmUJvWisyILCJgvNnKjHpTfb37zm0zwCMykh86POUDcyM9pWeSN7Ek7OVHHZMZECR+HvTn4DLzduSk7HYOOShvtOA1OQ5M4Xk05tuScEDQMh6Vw0Lfrrrtmp4gaDGFpag+gByeY/GURWmHJLO+4emsC5xg4jVdYSBFxafwcKCILAs7IrnFqiOLQoPTEQDi/+tWv5kbFiST30EiSkIpLg9DQaVu8/PJNxr7jSD33AAFrHGxdm266aVvnmq1QidKhAanIs88+O4eHNPyPcGgD8i49GpWyUg4cIJot1HhaweYk3xqkfZzyjYQ0bmTCpRZX8ohCOWrggJzUjY6hoCy7KPVSlpxwqCkMnSkSURe+03HpBDiDZOf86Ec/2udOBDIhjdykSzOCQnTgeEbH70nnfvvtl51IyhPQ3qRLx6Iz+dznPpf23HPPdzh2VG9ICNGxtUmTDk54yoTX4iILGpOyRppmnP3utttuuT5peM72dU+9IG3v81QsXeQY0Uo7sHVy4iq98qTDRnZF2w+MHzqO4AiTnpJWw4MrogE9sp7OPUJDE6O5aVytwxnCTqA0bMJFSLxPwJBf6UH32Wef3OhcbG4asW0+emVERwNBCu20W5omQtx///2zB2CeeXmO1dOWYayGgKQ1Rh5hecVFrrQT8B2NDEnoyfujRZvVpBkoI42MxiUfSMI9Wq1wOTGkkSEK4RbNEWlxTd4K3mVpQfJf8s05InKjsegE3JMf5XXaaaflsu0PaIvOfUBcwrBPVANWDsqQJoVIaCg0T6enmeToDfJEBnyvo6FpKUNQDggCUYhL50KmQOdAQyQ38iMe7yj7dtD5FO/GNGbvtkuXDgMpImeejWm+iJw2TcsDccu/Sx69QyZLh2lUgVDJgyG0DkobaO28A+OGjiM4moaejHZklorwqGR2FloAzcuJW84L0Gj1vq2eTZEIW5cDR7yrd6Uh6PkJLfLTeLmTRgSES6PR+PsLQ1Dki3DELxxaEI1EWguQsri8U7yw0vBAHpCpo/nkV6P3DCH31nPT8gzbEJv8IU2aDOLmd9/z4vIcAdLAxKMcHH5McykaTX+gkflGuYEyooUgJuUvnmZa26XdO4bPZVjMR5t76lV56aCQtjjcd/XmTRax0dCcJ6CTQiDSiEDAUI/L71KXwhEeSJd0KyNlUO73Fld/QZsWv3IXFllQr+Jr2mzJgnSJFynrREtZOROE52EdNrJEdEVOAuOPjiM4vZhTpL797W/nCtYwDWUIDzuPIRmbkKEeO8q+++77P+6o2S1cjtxjH/K+d9nENCSamsaF6DRSw1OE1VzUSmANPzxv1RABORJCWoRG6j2aERta0RjGBnE4w1PPr5EUGx9yFm67eDUecXtusanzDjQcGqIhvLjlHRCJoRD7Vikz79Au+gtaH3sc25Z86jzEKw06hTKsdt9z2gfjeX9Bmyo2VPlW5oaJCLsd1BHTBC3QMBcpNA9HkS4EUeqNhidtgHyYG5BOmahBmEivLyAk2qowXa0oNk3ypAzUIfOAelF+/QF517GXDjxcPQ0MOo7gDCHYjcBhHxo04TKEYRc5/fTTs4Cz1SEvPTYQwqIhGHIwKLM3GdoiHkMt2gxio2kRSnY6Qxqr9v1NQwQal8bBnkUrYjQu90tvb5iGLGlRhiLeEwcbjCGh92gkTe2gpLHcQzaGunpyQyCE59Kba7x683agOQpbPjUgfxuWSrPhJMIANkQzo2xO7IHCRXbtGimUNBfNBrbeeutsTxo9enQuc7+GlOWcUYSB6NSFckSk6qfUBbTz71/KhgbMvqWMEbAy94vIWr8B3/kGwdPe1C8NTt2Aoaf7wlDv7IWGr+RIvgy/pU3Zi0t6mS6aGp+/vQ/eVZ5sZWTFREi57xKmjoSJggwpY7JAwzQsLwflNGWnoHlPx4TUlUOZFCp5glJegXFDx82iapCGky4Nll0G0RmKGla4T9shAASMcGlgtDwX24bhEBLwDs0AsWnU7ClIyXPDLvYqwxxx0rwM98rCVg3IzJjeX1g0SA2FwJrJojW6p9dm8xMWGw1DtAahJ6cZ0DrLRIl7SNoQSjoMv8WhQdK62OoQlPs0VXk2HGwFzUA45Rg7jdGlvGhy8gbypAEibg0UafgWGSq7Vsgr7YZtqmiB7ES0amlk9BZGsSuWxq8h0lgKIasnQzRp0zDFzR5KuyqgZbGVCV8+aW/qSd3qhBAnMlIeTUg/KCPvyjO7mA5NPSlX6ZEWxOVveVGOyoU9jbwY4ksXbZMGSP7Zz8RNZnRgys/3ygXx0AalVVz+Fg7ZVD7SSwbkQdg6rE996lM5DGGSHfkvZaDTZsqQP/ekm2yTJ+8rVx0xWTOSYV9V38or0B6UA3WubJWhcuu4Q2fKbCaBJ4wEpAh1EQrv6M0ILkIihIYaekACWCAcwx2NgDDSlMouBJkn3EgRNMrSqD2jtRiWITJp8J139e7FDbb3ShwIRiMp2pPhD7Lwbkm/e+J0T7i+8z3ikw9pEL542B81SjNy7SB9iFo4SEzZiM//Ghyw7yB27yofYSuD3nYnSIe4aUhFowHlp0ELy31ljLgK3JcPw1NhF41NmSsXDV/ZlrIBQ0TEX+pD3Skb+VA+wneVvDQhLwheeRoiS5OrhE8+GO+l23OCLy0lLPfVrfJXXt6RB+ShYfhWnYtfGUqb+MiZ++Ihn8KVX3n1nvQXm5u6FK66ISfuy2tJY+s9/zN5yJuyUm7kRprFI3731XmgPdRdnKo1DKDx2wt68MEHx7qnQKCfaEdwMajvQLDzGGoHuQUCE4YguA6ERcPWcQUCgQlDEFwHojcbWSAQGDcEwQUCga5FEFwgEOhaBMEFAoGuRRDcEMA6Jle3w1qwCcnnhH4fCLSi6wlOg7Hw0xqZoYbFmxaJ2lFhO1HZEzncIU9Np5cF1h7JJ6JqQh1YBOt5X/CO3QkW8A4VyIWF0BYYDxXKIvDA4KPrCQ652StqNf1QQiO33cueRHsU+YmzSb0bYD8wR5qtsP3q5JNP/h8itzuCt5Tis6032M/65S9/OW/uHyrYy3zIIYeM2dM8FLDtioeXwOCj6wnOqmarm4uTyaGCVdQ2Z9vryieZjfG293QD7N3lmaVVI7OB3eZ3+wGbsBdWJzM2Ldr2Kc4WeNkdKiA28lG27A0FbHvjmDMw+Oh6grMHkTfdckrSUME+Rw3VBn6eUHjf4JmjG2CjPWKw+b7AXk7eOwy/kFTTlua+fbpjcx3Euy7nBEO5DpAZIdC96FiCM8RrteVAb/d7gw3TPD4Uv2VNjC2s8rx5FTT/bgcNXOOxMd1GcJukmxvHW8NrRXk+tnj6wkCE0Q7rrbde3kTObVIJm1cUWhDXR4aq7HTgOa2Oq+/izADapYvHDXY4YfQX7cLpDePyLrR7v7cwyv3enkNfzwKDg44jOMMYNhx2Cg2mGH+RheEmTw/saf52D5EweLcOf2gUtAnP/V2eu8cu53uNiYHZ/03BK3HRUqTDkEzjE0YzfeJtZ5z2vXc8Ezdtzi+U9PC+IX5/N7Ud8Rr6Gc6Ks9WeVdLWGq/7zXz6Fa/hkLDku+SxhOG3wJDavf4AUXPLZOgpHdLPJsfNEo/Mys1kAfD+wjzgGZT8y7u0NdNhOM/JAA8b6kSaC6RdXGVYLBzfNuuwWY5NCF85tspOOwhfWOqWaygyKO5mfOquNT7P5Ef4yL2E71t/e84jiDT4tjzztzhL3YC/3Wu9Hxh3dJw/OA2DTYQjSH/r9aWNYDnoxEZ0GoLZOi5paGhOUeLix/+gYfCOy+UMVzScGnKL4x1+xJx8pHGKw/kMwuaTS1iElpA6EISDR44ixUmo+TfzTNicOiI+rn1ay054bFSGahqWyQazZuxwSItDT2HyoaYRFTdLtCIGfG5zDOvEzWVO8e8G0sGxpvu+841GoDw4nJRHBCR/3lNWjPsITz3z4aYhygN3RYbwoEyUR3+H8vKo7PhQA15oOZtURiZTxMVDDTskTc9zaUZ+0qn8+GxTNtIsHb7h2UajF4a8Fjfg8sjXmrzwtSYckxKcVvLVhjzUf3Ef1QRS4QCzHDOoDsQlTuWvnBw+xF2StDEtKHt1oHPgRxBRkyPxkSFlKD5lLT6OROVJXg3d+XcrrprMorO5qXN55i9OB8lsQcbYLPmyKz76dAC0XunmL44cB8YOZd3qD67jNDgNgqBwQkioaSEg0YSNw0nOBQkfB4GEn+NCfvqL9oIYCS3/XYQFMSIm0PDN6GkUnmtMvPIWw7aemyBrCBqXhqAhE2KahfTx2spWpIdtN93vXcLq1yWNvtWzSxePreLW4JEdj7tl2YW/EbawNSDfNaEckJEGIG/lHkJQJipVA+MKvZAHMvjOd76TnSmCxomANfQCjb/dzGhvkH/xK2ual06Fy21p5tBTOcuvdHqXHzXvi0Oj9h6ClW4dmnpW1qDMELZ6oJ0BDci3iMa7OgLk7Rt5VI7quWhHTSgTGqpTzXhoQWLqvx1MhvAEjTB1IAiMFofAxOce4pIvcZY6kFf54aST7JS6UK/KWvkyU+iwlT+QC52ZmXZEC2SexmvCpuQ9MP7oOIIjoAQcifEcq7EAwzOvsDz4ElSCRxAIiWP7NAaNQmNHkARNr9gOvrEcYe+9905f/OIXsxam0QHNBGGaGNCre0e8NDECqiFLH/Lbdttts32vFYRY2jUmHomdtmUmFeEQ9K222iqfhOU+r6/iLksopJ/GUJ63ho8oaE00CfnXIBC/RsujsA4AYSBIZ1IoG8fUKb8mgYmnOcQqnUN/QdvhPJM2QjNhY9PAaaK0MPct96Dt8NwLtBb5d96AIauLd2Faj4ZegNTdRwTCkE7lo3fmadffysx5FN5TP7RcpIKMWoEAecMlU8pWGpvk3gRS4iH485//fC5/clA0OhNGnJAqf9q4+BAhqGdlwJOxspFWZSpfvnUwUKlT9Q9ss+SCPOk4gXzpuD1TnzrCwPij4whuyy23zAKIWJCWpQNgOKhnPfTQQ/N5kxq4BqBnZ/Qm4Oedd15uRBoVwTTkbAfaA/IzRDEJQFiFAxq+q3jx9Q4ypQUBD7saMmGljZX0NYFAkSEtzq/8EFg9sjTRThGO+xoFTa7YrEDcSNLz1jwIR341epqctBr2SIeGJ04NynkAhkmGbH7ZzAZyfZm0KTfarficSQCGU+5rqEWjcuYraOw0MOmmUbqQhzzSsAo0eERkeKaxqxvHFCIzpgQdWdEOrTGkgbunbJqkXcDd+je+8Y100EEH5RPWaJzt3itQ9sVzr/pDYjQxhCY+GpeylFf5JIfOuLWejnyacCmaJPfn0qWeS50j3ALDbZovF/WG5GREB62+dFbKIjD+6DiCIwiIjHZEEyGQhIsAECikRxPRYxJSGoxe7rOf/Wzu1fWEhNKSBETTDk2h8TcS8K6wCCPSYI/SMGgXGmE5GwExfv3rX89nLxiq0pLK8HJsELZenTYo7S4NwW+7Wd52kF55o8kgdFqh9Jh5LF6ZyzBIXMKWH4SgXEBelZn7ntNaXAXKwbO+tDqkb+iJrJC/sz4LNFrlpAOgxZazREuHYZnJpz/96azNOEFNh0W7akL4Gj5tjdaH6HbeeeecduHQuslICcfpWoblrfZQ+UJI3ic7TBnFbthf6DSQE82rxOckNAcDIVxDUPZUdk2kbjmQugb5VY5IutQ57bqATHtfnpzNS+ZoobTbEkZg/NFxBKdnNHwwxHMx0Bb/+YRXj+m5nq5JVBo4ITRUMwQan8M5NGyGXULIXqVhsIkJz4G94H45eIVRHcEU7a4vSKthLYE3gcFOZhin0RHuQk7ea+arHTQ4BK/h0ExorWYvC6SVnY8m4Bltl6ZVll+UCRd2MuWNxGkaBRoYcvJ9b0A0NAx1Qtug8RTQUgzVNOoPfehDPXdTNi0gO9qqtCNiNiwkVMi3CQSqkSNAw8NyYIuwdQgmHZSVMjVM966yaUJdkhlaOy1RfTVtW6Wsm7+t5S/d0qeshK/8xCcP/teZKAudQpEH8YJ6VdZse0YhOktD+iZ8i7wRpYPDafgmawITjo6bRdUQEQBBIBBsboSb8GiohiJIhlAReJoVgtDgCDCCIiwlPzQkDZhdiCAVAt1mm23yc9D7ahyGQLRDhMp2pdGygWmkyFMcNBYzYiV9hlK0qdYGKl5DRwJeZkE1DJcw9NTiRXI77bRT1oCEb9jlm+ZZn+2AHEycnHnmmZnQmgRn2K0R00IRqSGTe7ROmgytga2RMVxZGrKJ21CRVoTALddAdIi0NwgHMaqDVnuRxs+W+bnPfS4P6YFWppwN9WhmLmUkTbRS4TWhXpGferfVrQztkJvyJifIUlnKg6F4mXUtEKZ8mCBAPuqN7ChjMuEZzV8dCN970sOuV9KjrKWbxq6+xKVz0G7IoHwhMLLnvnoxvGZKkAflahgvv+pcZ40Am3VGRmiX6mX//fcfQ+aB/kOZts6idhzBEV4CpfcnZM4mYMzW8yMoPSeNAekRUOkmiHpdhGRopPcrjc0zQm+ohFyE73kZNoHwDZHESyvQYGghvhWfRkxIkRxNoKTPMMIwqp22KH4NrsRb7olXGjUiQswAjyA0ICDo8iWuvqARIy9ptf+zqUGJz1BfvUorsmSTQzSFyKQL6YlHeXouXmmmlcgnzbVZTq3QeMVrIkgZNjUf5Sw+YRetStzqkI1O+O6rY98rj1bNCYShvHQ+BerFPUNh8aorkwg0O3lvDUecLqYEdUZ2vCvv7J8mpHRU6kCZIT/pK+GoN3WlzJCgMkVe5Eh80lgIyT0TB5bbSJs8ihvheddzdmbaqfsF8sTkoK5MbhV5CPQf7QiuY0/VMnQhfK1ALIUwWiGDMlUa1LjCEFUvyy6EBAgtwdMz08iOO+643DCgt/T1FypAAxL++EA5aAgaFxtcu3DkRzyeNbWaAuVFGDSmVlIwrFOO7Uinib7y0VcY6snzdkPTVkhjb3UqfheyHRsmtM5AusVHPppQ1iW/7coa5KO3umAOYPZgw9MpBMYd6oXdXttg5zSi6zgbXEFvgtgbuQHBGV9yKzBkAXYfwyJeH9i5DG8MLwomtKHQCsaX3MDwUpoMO3sLB7H01eDc11DbEVA70muHvvLRVxi+6Q+5QV91Kv7+kBtMaJ2BdLeSG8in+72VNfRWF4jRuj5KRnOyJjDh6FiCmxjQC7O/6aX9smOx17C5MGT3NVwbSpR1b4a2hk2B4Q1mEZ3nYYcd1idBBsYdUZoNEC42EKTB4Gu5irVaZhTZqIbaI0lvMDNqPZnJj/5qL4HOhQkKcsc+GBhYdNwkw8SGITAjOMM1uxutjQHbbOLYDP9DBbYG6TLD29eQPTA8YMRgCQ97amD8MawmGToBFuSy28SwIRDofAyrSYZOgPVNQW6BwPBFtN5AINC1GPYEZ7zt6g3G4dRV4/Pxge/Z4sYF4jL179ve4B2zthMKari4JhTSopz6SnMgMNww7AnO9HpzfVorzDba/tTfDfGt4OHBJupxgbhsEPdtOyARa9iKq50JgQWitrdNKJCkrU8WNQcC3YJhT3D2Ndpz2RvstbSBuSzgHVfYl3nSSSf1/Nc/cILJg2xxYtgKkxccKNpoP6FAvk0/b+ML2psFzZwbBALdgmFPcMjC1Rs8Q27jO/Qy/G16n2gFzcesTXMILC4bqnsbOlu7VvZSTigs+rUoeUJhiFq2pLWDvHg2vkP9bodyKZvoA52DmGSYABBm624MR9nC+gtbeuw7LO6LhgN4yKApj+9Qv9uhk7FZPsqns9BxBEeToAFZ01IW6zWN8a3Pm8+g9Xm7HtW95vO+wu+rR6bR2DJl7Q2Hkr5rwrclLL/NeOxLLHs4+xun91rfbYYJfYXV+qw1Te3guTC4NTrxxBOz3bD5XXk+tjDd88y7zefl+3K//F/Ca77ffLfAvWac5bl7Y0uP93qLp3zf27PybfmbmyUOK/mC6yvO1nCb6C3OVrSmwdUap789L2G2Pp9U0HE7GfSAXI47FMQeUMNL7mnKliT+svjW8oxvLr7OuObhAkcFGrL51mZ07oR4B+FDjs804dC03BMH32CGFfaZlg3UiKp87z3boniTdXZDK9j3EJyJDO5+NH7DTjY4Tg25y/FMXH79XzZ8C5Pdi/sdeUYgGon4bFIvvs9awZedtHm/aFXC3G677XL+pd8zEy/CItx2YCBTQ2kTEvy0uaRTmci7cuF2244NDh4LhMnVOB94yoN7JENZ8qJOeOgQFp977HfqS9oReHOjvc5AmqRBnGV9oSE+l0/KwH1lom7lgXaskaof4QlDXIbLZVeJe/Kk/O3q4I8NyQhTPUqftNqUXyBPTBfiUebe9V5xb6SMhen7pnNOYZg48p04+PXzv+fq2/t2mDBpCKvVmQBZU04udacMvAfKhd87+ROnPJJrcbY6LJB2h/W4T46kv8hXiVO5Ckf7UCbypO7660RhOIKsdLw/OIZ5s55+EZNZQhWDOAgh10Ce2wRvJpIDS361+I0jJBdccEHeR8oZpUr3XGUjOA3FcJLnVIJJSAmIgin2MN8y3Ptewya03m1HcIhLWgxPCCvCMOz0a/+q75GBhm+/IcHip827Dr2RXo4iNXz5Qt58zyEOPspaoYHQojQsZSN/hFvdITjPTW7w5ovoxYso+Dbj+026eCjWAOVPR8H/HH95fREcojT80iiRISKXD39raD/84Q/zATjqTOOVT66mkEWBunNSlPTYYlaI3nff/va3M2H55mc/+1kuO3nTQJUx4lI/0m0iRPmVnTfuOVSHY1S+7OwfbtafePj607ALkCm3RN6TJx0lElAWtkspU/lSd9KA2PmLQ3LeO/DAA/MzsiUt0ueELeXkbyTP7xuCakJn5MQ0ZS1tIB9I3aSTySJ1JE5yh7DkSRxNkHsOWcmltKtncq3c7UrSsBGl+pTGIufKimPRUvbdhnYE13FDVL0/bYxTQN5lNRLeFkDD5lZGY/7Sl76UTz7in60IgEbhTAYNiBAipab/fcLDOaRelkdfXlw5q0RqCIEAIAAOGPncdxHs3mDzPceFGh8vwk0PrdJE2Pjwlxb7WQkwoQRpFR8CIYDid1AOwRVmO2ggBHmHHXbIB6jsueee7/BwomFqaFzuOMUJqdNwkL5GrcFxsOlMBDZAcdNiCUNvkA97c3kt1viVvZPAdDoamjwhEHXhoCC+zBCHRtqEXSFICGEhDHETRA1PvYhDo3fOgXLjCRhxkQcuq+TD+8oNkRcQYiSls4DS6KVRJ6JMWx0SiF+dkxO+/9SzDrKQoAkgjgyUkXwjbvECMhIfR6fqVV2oL/8jQDK722675fJphTJBfsqQrBSvzcqEe3wOHeTbpTMmizqGVsirjgEB7rXXXrktINQym658zNCrO+Ugj9JJDnRqkxI6juCo33ofRKWx0tQIFVgSokfTcDUI5IagCsHRpFQ+LUTP6J2mOyHaEYbX2MRBfQeNQq+qJ0QEyE9j9H3T62oraB20I8IonmZc7iM1mo5wNBbDx9YZX2nXq2oQhFJj6m1TP80MmWi0iJeW13xX3pQXTRBxGKIbsriHQF06C4JuSEULkR49X19QXshNz6/xy49waZG+17g1MGlzghaiQDJNGCJz76Q8aYPKG7HRbGmxwqX9IYBPfvKTOX/qUMeBGGgi/YURCW/E0unv5vBUXoWH9BAKGVKOZEr6PVde3JjT8nQoNDNyUYDIyJhvlYuOQ0dDo6WF6vDa+bqTfxoeMkNQhtVgOCwcJEQWyJ60kdEi++3Ac7B3pYOclU5FGZIFnbtOmFw69UyZKuNJCR1FcIRr9OjRuSGrnFZ34BpFbw4Hwfc0vnbCBXo22oqGKgwXYdSgCCmtQvitQ4vxgXCaDatdjw6GFRoYX2DecewcLVNeW4FM5K853GqCNuOZxitvfmkXyFWeuH5CLoiXlqzxTwik0VXsRC75dq9oVE0gfdojLQJh0aSQLPff0k1DQ9jN+i22SHkTfunM+oI09Ab1j6wQDTkp6RanstUJqANmDSTDhZFvmpqU93urg76AbHiFFjdN1XBaWoSvfppyW4aRZLI3NE0A6kCawTf+5xGnlJf/lWVf4XUjOorgCDHbCXIj9HpUjaJAj2UYo3fSiAztXEUDUaEqWc+ngSEEGlEBItFT0rgcGmwYZyii9/YtLYLg0n4MiQi78HsDQSdk0q0BiKs3AfJuO3jftwQcyTmpSyNot8tBuRge0TTlX3yGuQVFyzLEpg0gNpqGYSNtQblotMqRxkUT6S+kX1rFa7jmlzYmXHYpZa3MDHn9KstWCMNQkI3v+OOPz2edGk7TPoA2Qgtn/1J/NF6avKEY+xjC1gnQsIo2jCh7K9t2UL80GsRKm1X24jJxQK5o8zRTx1AqRx0gDXZsUO7kUFjqThm0yoI00/R4ima6YL8Vp3wrN0NVGhsNjAyqz/EhUulFZiZQyuiEdqf+29l2uxkdNcmg5zW0MbTSq1GnGaU1FoQnnQzyhJEQmIAgpASWcV8vTIgIiobPUGsYioBoDhokAWTE1nMaJhj2IkVDC43V92azDJ/ELQ0aAbtIOyAZ79MOvWtoJGx/s7EUGxnBpT0hU8TCmO4gEoeumI211ESazXYRSPZBPX0TJgrYIREKwUUEGog4hEuwkZ98C4tAG/4IR951DtKlnJWLvxEdzUJ5mwQwxGwOtQuQmgaDVMziSov3lJcyNCxWF+yEwkOkrbYvUEfSo5Erp4MPPniMGUCY0m14qHNR/oaIOiL1TwsRn3pHUEjBEFfakTYS9K069k1vUM/yg0SQkXQzh0iv8lAunsuT8kOibHE6XPXtOx1REzQldj1aKFsoctI5N8lXuGWCTP3JP7lEcGTRjLx7ypmcq1Pk36qRKiPyYvguHmB+IRvkVBn7hnxIr7B1FDpR53gMxAilE6GD0R6akwwdN4tqSKoCaXK0KiRBsJAcASQMBE9jVVEIRa+ksVHxCbneU4XLMK2HxsCg7HthCZcmRIj9LUyCogF5VwMRvwJiuyhHwLWCUOu5CSvCNRtpSOg+wRZXESa9OSLV+H2jEgivxi290iNOjZ8Qtutpfed98dEslRVi9y47DM2UxoEc2I2QgXply6IFyUf51rvuS0OZqZNGGlU7zQ55Kk/hIiJxkptCTuqD9iV/DjIWX2/wjB3KUHmPPfZ4x1BLemgtiFq50Pho2xqt+qHBSYf6VT9O21Lm8mJ46xlZUKe9QV7IU5ET5VSG7cInC+6TM3mkAUuXZ+KUltazE8gWclIGtCfxS0+T4HRyyEbe5EW+hFuIVdjKt8idzkadtwJ5ySdSb2qX6lR5eK6OpJdcqW/5NbHRrvPqFiiTVoLrSIeXtCEkp3ESdgkt9gmNEAERJpWrcbjXtF8QJMLpOQLzf1NQFAChpplpzEil2CqABkWDI8gISnp66/WkDbkJk0ATVvc0Ht+XxqvwS5oJoLg9K8/lSeOQ3taG0YRwpEeeCDR4V7wFwkJy7kt3s2x865k4NDLvlGGQ77zbqjEUlG8RVDNMxO2+epAm+e4LNAsaEK2izCQ2QTjVn7SpH+lsQjqVuTR4rr6Uo3Qrl1Z56A3qgByIh7bVjIf8CVdeheeZONSz70rZF3hH/bo8I29NmSqQdlqjenE1y1o5ypd7nrXmuwnvqcOCInNNwnNPnbnv3f6UyXAGuWl1eBkefQNDCo3N0gXCOHr06D4bcSAwLmhHcB01yRDofrB3sSFaMxfkFhhsBMEFhgx6VUZ2dic20UBgsBEEFxgysDExfjN2h/YWGAoEwQWGDCZzrM+zor+dAT4QGGiElAWGDGYHzeaNz+LVQGB8EAQXCAS6FkFwNaxhcvWG8twaNNfY3p8UMRzLpJPTLF1F3ppy10S7e/1Byff4fDvcEARXwz49W6R6A0GyP9EmcdthbLUJvBNW51v9P5xgW2Bfe40t6rU1zfqqoQLSMRlDHm3XsijaZXmNxcfSVIjJVjyLw8EMtbT2BxYJk3ly3e3ouK1aEwP2RSIt24zawX4+7xAo+x8JoK01YSj/L0455ZS8B9b2oeGCr371q3kng4Xu7YCwubAy89u6c2EwgLjsPLD/lU89+3rta3XZO2wbF/ulLXpmoT/zmc/krXL2UdufywUW11NjAzm2IJanlLKTphuAsFu3akULraE3K7602sF5oTZc887BWSGhsr1nOEIjGoyemwan4XQq2uVZelv91jWBbDhCsDJ+KGDlvXWC3FrRzOzD5QDVZS+0UQQfdUgZEGHR4Mr+7f5gUtLgguD6AcNSzhNt3OdVgrANV+3NPkiawKQE28MM8cYVHBjw2stJwVCApsYlO0cGvKzoUMmciwMGnod5DLZfuRWcoB5wwAE9/wUKguD6ARu/DQ2QmsvwYLhqcNxgc7Q4KYFr9R133LHnv/6juJkaqk3qztsgZ4aezTMtyBpnCrz98pzSLj2W3zTd1wfeRscRnGEBLYMazuMrn2DcGhlTG165jK25/Sk2Mfazom57zkbGTYxe2xADQTWfG6MbcrIZiYN3iHZguDWEMUQRBj91jNLSIjz37KsUD/9kxRgtfYYO8mHoxn8aNzlNCFsaWg3DwmVHMIwoedFA+bgTv/dLXmgmwmiCFxQG6vJOE8qEPVEehOV/wyJQJlweKVNlxiuG+HuD9NMEyxkLzWFcqSPhKRvPm3XUCu8qKxqMspKnZp2oA+lUlgzvnotPPORFOqSnCWVjyCZcQzvlIs+GZuqtQNzKgY9B+SZ3Jd+l7P2CcuU1RRnKl7ovXlTAr3QKj83MEJKvQPGODdLHrx5NjNutdh2oezrYds/kST4LlHXJszbEnthusqSUoTKWl25Dx00yEBwGUMLOaGoGiUAzrPJvpXI1GCc5ER4ER+jlwXPCyCEhI62wPEMufHxxQaNhcDbpgA7vadAuftT432qC0PBbptH5DmkRHL0rYaINXXTRRdmRIQHhcqekgQNF7oA4L/QOwdT7FhCmQw45JN/nN64IrQZoqMGvl56aw0dpVQ6ID1EoC04bEUgZthQoM3EzILe6PeKQsZzFgEAJNj9htAZGas+VifyIRz5pMa1Ahozv0uU7daC+pImjTs+V+9lnn50bOfJQh1wPueS5CaStrDiv9K4ykya++ZTLvvvum+uCQ0jmAmECswEycR6p+nWVcpQuJ4xx3SRcnZnGrAyl07Bz9OjRmdDUpffFixTES2NSBtzHm4TghogsSJ93zairGzJhKCse5FZkTxrZy5x/Ib6xGf+R5RlnnJEdVoq/P+AVmcdmQ1pl42hHPu3IqDypH+7/pRPJGdqqU2QnHw52Uq7qUlviK079DFfId8dPMtDMGPX9snfVBJwbhwagV5dorq6RFqeAHBVqYGbEZAzROIJNA0FY/I0hKN/r5QmedzWOrbbaKts32tk0wH1EYwbNTBrvu4YJBPmYY47JvSOBImTSq6HRfKRRQWswyMvey9YZWmFrFGYfi6FY+pECoRMfIpcXDURaOV7UWDVcaRCXxtYELYewttOWzPzSDhCkvHCRxW+ZMpMf6ZEXjZGxW0NtB/VhmIvQpUs9Nf2QIV6nnylvLuGVsQZX8tYKQ37kJE0O/EHMGl3RnJCaTkJ6yYOOyvF7tDR/06g07qJFKhtxKU+NFgGQB+HbJsbBZwGtDNkJF7Hw9kxrQ4bCp6H6BRqeMlF+PBY7xMURlMoPaItIRTnakubSkcnb2CB9Jc7xgTqRViAX0onUyZ0OUBp0+AVkFNF997vfzW2Ce3b56jZ0pA2OPWH//ffPFUNIkBhB1GD0sLQQwo54CDhtRY9ahq16dRoZoaGZEnI9pN5awyHw7Bx6MIZcjb4dNH7H7GnIwvM+QTD0QZiOpeMa28yqI+4QGlIqkG7GYZ5bW71nSNs+++yTtQRuthESgdPbOgpOo6cNyCP//YhEWqXBO74bV2jgCFeDFg4ik0cdiobleDn3pRkxOa8USbSCVoLQaFa89yIlmmAB4kfaXGoLR9ppdohDHltBo1PG4lKHnFiaFaRlFrCh7b777jks4SJKcfCey+23IaF4kQRtRYNX7kgLqdGG5U190mIKEIBDhzyTF+Sk8xROO/Dk67wG73PaqfNBsKBOaMfSaLmMjk36EN/YwBO1MpWPdmU+LlB2SEvZKzdp1Z7UUwHt3QhCuyBvCHsolsIMNTqS4AyLittshlbDPoIHiI5wG8ohBpeGQJvTK+nFERkV3DNk4D5SM3xhryHgTY1jXFHsMoYmBQS0DJ8LCExfBmpkQ3MoGqtfQwSNkJBrLIbeGr+wy3AWGSH6gvHt9QtoIAhcOQPype2xfWoIraCdelfjbQf14RmjtzTTyGhNyLRdeDQjGpmOw3DVJf9FgwMabfFAolMTprokH9zWkxnarPBp0uqmnbfgVpCzYsxXV+QMcfZGcDrM4j1Z3dDEm7Yt6ZYG98gh2UOCY4NOHTGSV+TcTgMXFu203bMminwoc3UJyqw5GywsRChtyra8123oSIJrBWEudhtEonHptR3vdvjhh6cjjjhizIHOhFTF8vXvlCqXI9poS4RTw6XhFSM2dZ7QjAtoK+JpGo9pJoRmXPycyRctgNF/9OjRWQuldSBfjU4D0vuXBkewDUE1QkRYhJL9CxCCfI2tATQnQ7xLy9FhFNLUSIWpnEtH0wTNT+PQgIFm3Zws0ZgQNoIUvsvfyrqdOYDNz32aqvKgcfQH6g3xkwmmAnZKNicavvovnWKBfCtH+e4LYyu/AvVXbH7CVWc6WHWpc7Xkg5wwc4DyVW69kacRgfBozuqjyKX3la8hpokI5dgXxIkwdZBFGyQXNNOSdx2Q4SmFQRvxrL/5Hk7oOIJTwQSnieY9WpGhlhOgivGUgdUvEkQwBNtEgiGjxuM57UA4VHG2CZMUhoDCMcQo2kE7iLuZJtqgRkgwNCjCzJZmEqFoddJSSLkv6D0NoWgwBNkhMtJJSOVTg2BPkldxsa0Y+rKXsKsYXsuLVe+GzRpBbw0IaB8IHgloLBpdsXtpWOJhHDeUN6yRllY4r5aWwhbK3mdSSAMpZah8aJ3uI21xmcCgQbBhtoL2RevQqE1O0GSlp8Qt3GY6/N28h1jKqWrHHntstgkqowLPXcJlyxMHCKO1jlrvNevd363vl3QiT7ZenY68WKxryGoHDO0YsZBJR0L2Vj/KR6fNXmkdHNksoxQTHCaU1H8huGYZSEdJq86PU9Hzzjsv55lskCH2Quks5ccOzZaqE5VOmnzp/LoFHTeLqsHprTTuUmEaOZQTiPTYGkNZOkGlJ0Qaj57JhfBMPhgyqkBaCs3O8FS4GqYKZQSWd+Qk/Hagnfm+PNdY2OJoU0jUEIuqzyaFsAiz3lMjbw5j20FaNAiCyF7CIC98oD0JVxwapfSyGbH70ZKUhefyqjwMnRGfshBOKb8minbG9iJeZKRMEKXOQHkZgprQoAWV4VgT8oWUvC9eeVU+NFvEIk20P+WPcIWnY9ptt93eYf8qoL0JR7qQLwLwHtuqYS1zA9IqQ2jpRqjiIrugPMiCTkujbdpVkZKJD3Yp3yEA+VZ/Gnk5gUvj9h77rrzQoKSHLNKqyYFwm+eXkD3/K3eEb4RADpS/zpQsIhRpMITWubIrtxIluEe2pYnMkm/lJ/9Ir9gLlY0w2ZulDTGqAwSP6NWZ9XvkwffkQxsygaSNaGNI0tBe+ZEX5S9+9Vjkb7iBBto6i9pxh84Y9rCxqegiBP6nYhMihS8jhm0EVEbcJxQF7hFMQz9hEEoVqdcq0JhoIWXbFY1Jw20HYRGa1k6AoLADKUgNgjCLz/96bwQzto7Du4z2GuUJJ5zwP8sJ5IVwa3gIjwBq9E0gJUTtuTwYMiLaUn5NaLSIQN5NvkifclGm4lBmGorybLdEpMBwmFbM3qb8pYlgNYnF8EfaaTXKua+yoEVrZMhHWZIDeVCGOhCNuNhN5U/jdU+9gU6R9iP9Zp7L/QLpkF7hy7ew3JPHUu/qQhkY3iFkeVT30q5M/C0vhVRB/St34dCCaKsIs5SdcqWh23aFhMiMjrJoXr3Be4b1hvogTulo1glyVfbSi8C0Ee8UaCPSrCyVlXIFsuKZe8pXGhGqcqUEDFeC01ZaD52JU7UmMgif7UAapFktmkhg3EFLOeigg/I6MpM0YyOQgQaSMORn76VZll0FtG5axde//vW8rCQweGhHcP/bxQeGFHph2qQV7N04TT8UoGkxORjqMh1MDND+EBmt07GIlrK4TBrRCmlkgaFHENxEBFuTGTeNwpKGodY6ugWGmgz8NDdDtolRjuI0fERm0kJzY4M0KUBza2d7DAw+guAmItis2E4sgm23fCLQP7ApGRKydU0s+xE7pp0zzD1mL22jOumkk3LazEb3ZzdDYOARNriJCHYCM2HKvmk8DowbDP9M6jCiT+wFq4z3Jh4Y7dlTaW+9TV4FBhYxyRAIBLoWMckQCAQmKQTBBQKBrkVHE5y1RVRNCyQt6rWI0yp2U/J9bUcaCAh/KOLpZpRJlMEE+Rjb3swJQascWFBskfRgwBDLwl6zwuIYF9kzLCv7gaXX98pmUkfHnqplVbYtKvZf8oHmsmLfdhlja7sGGJQHa0kAY7GtPQzFMQEwftAxcYJgI/xgwT5Ni3x722Y3oTBZIHxrFO3WsJjX8g9bsgYSSImM27LHZZKdHXbztO5a6Q3SpW3YgYLohCXMSWn2lkLUulWrIzU4FcRYaOsLAbZNpuxDtdfQpnCbppvudAYathnZnGxdU2D8oJOwP3MwwYMIB6CDBXtXrVW0bQqQXauT0YGAzsCOFp23/aJ2uBSNrD+wb9X6O6AccJpg1DOpo+MIDvvam8nVjCl225e+9KUv5Q3Mfo888sjs+4363W6v5fiAQLQ6kLQnz4r05t7KoYTexx5c66iGAwwTW8uw02DIZ0nJuOwqsPSEC6fBPtCF8wN7Za2Z43CU66jmntfA+KHjCM4maq6DeHtAajS3sgjWLxXcwljuigZqUae1aNwdNWFTNq+sE2sNE9LlLsdQYzjAcL7TT+vSaXBZZCFuf2FnBM8gTCKDCZvimVvInY7bBnojl8CEoeMIjv8w9geeIdo5WyQENqa37tukQbCXMLYaixf42z1j8rIgtGl89TdVnt2DtiQcDcHl7xKW701w0DANvYRjOFHg/Vbjs3eF3zQWu1fcbQuvN3hHWfCkIV3Nd0ue5HdsBnbvSpcJmnbGceEo7940Rd5CxINwm+XahDCk0/BNOO3qwJBLmQmn1XjO1FDKZGyG8ZJ3Q0bvK/dWCMMzYTbNGMqK6ymXdJa0uHwjn8qpWWfq3Xvt4gH1YnhpcsC7fUE43lUWzXflp9RNkcF2YbnnOfOJ/I0tvkAHTjLoXQkaVb3p3qg3IBmTEYa1DkpR+SYfkKOekLBw9idMB5Nw/keI5ZlGiNjEadM78kF2DLMEmh2Qi3Dhmdli96NhcizpIJTiKsgkBIFjq2m6O9Lo+UyzD1FeCLH4aWXiZd+RThMZrZMl4jbBQqCFLS7aqzRyd+TkLJf0+pavtNbyQgaGPfLHVsUdkaG3zkEjZpDlDFR6POM6Rzh+PZd2ji+l1ep8HUtxCdWEcmEc945Gp3ztr5VfZc+3nHC4EkJMZI3POJA/BnJhFL9n4vC8tUyaeVc+jP0cFUgvH3lICYGQBZ0DH3rKTXzst06tUv5mdtm3yA6XQcLlkFN5Iz8yZBJBuMif3ZdmpZ6FS6b4ekOgZKo4XPW+iYFWkCX58i5nomRN/NJFS5N3z9QlN060OXJVygiEIb/yprzkW7qLbzjp8j+3TML2v7wN9GRIJ4O8d/wkA+FpFey+wIEgt+VmWAmLxsgnv83OoJGx2xFgAilskxRnnnlmfq6H17MqFI3NpVfWMHhR9QwQm5OnyulcGpODegkcaDRmDJvQWAy3CZzCJsjSIXwkYbjEjY7wWuGeNPmVpmI3QoryZ0iIcDQKnoXlu2gdBb51ypPGg9TkAcF4T/nwOquhaJTClT+2IM8Z0p0+Jm4EjBgMQWkq7eKRp2YZNrVbkzW0N3k27FYGykPZI15p9C2CRgDKsVXbFCfikWYNHBEIA5kW+MZz5SwsaeAbDnGJS9rd83dJo3DFTX6EqZx43TUjCQhOmtotd1HmJlHInfgQdCuEj3S5B5dXdSYd6lC9SEspP+9KV5GXJjRe4ejs2AO9x+svmQ70AVu1aqGuy7YzUJNRtdhii1W1QPXc6R21cFSf+tSnqt12262qBb2qhaKqG3y19dZbV0cffXRVC3B1//33V0sssURVaxhVPRTI9w455JBqtdVW6wmlquoGVm288cY9/72NWsCrlVdeuaobZv6/blTV2muvXV1yySU5jFooq1133bXabrvt8vNaW6tGjRqV/y6ohbpaf/31cxg1cVebbrppVZNxVZNLVffSVd3Qq1rTyd+2om4E1VZbbZXLo6BuiFVNMlWtPVS1JpPzWwt49clPfrLaZZddqpqMe958G+KsG0G1ww47VLWGUdUkltPtvW984xvVNttsU9VEWdXaRVVrO9Vmm21W1WSZn2+55ZbVvvvum8uhJsaq1phymdWaQVU3tp4Y/oualKpae+j5723861//qmpyzGVXyv6EE07IZV036JzH7bffPsdZa5C5TGrSz/Vfa489obyNukfOz973vvflNKh7+MQnPpHLFWqtulpppZWqmjhyWMro85//fFVrd1mefLPHHntUH//4x/P7BdKlDmrCqq644opqhRVWqOpOMD9TPjvvvPOYOjr00EOr3XffPf9dd3Y5Peeff35VjxCquvPI95tQR/XIIue57iRyHaqDmuByeddab35P+dXkl/9uB+HIQ02iuS7ltR5pVDUx5+fKsB715L9rIszt4txzz83/TypQttpUrZjk8iVrHafBlfNDDXlae7GCOi+5R6PVGLIU19U0BLNe9tXqkYuNgsGW63Brigw3HQLC7jGuEIcpfGHotQ299LxN6JHbQVoMmWhItAxLYEztG8rpmfsD+aZpyYt0yK8hrgkX5dDam9MWnNpFK+HZgvbJ/iPNhkk0OtoTLdIh1spbmLQEQyraC23XjDYNTp5bNav+gLvxUvbqR37lhXbMpTYtkqarTPh1Uya0mCa8X0wLzt0oE0zNNYqGcNJHUxLW9773vaz10dDIS2+gzdKwlA/tj1z1p064uHI5E0MZMQfUZNnz9G2od0N36TZhRtNTjlYCeNbfuiev0mbkYUisfQTGjo4juPXWWy/7meduhsrfSiCEgr2IULJ5sK00G4PnVH42DI21HXwzEGg2rhIXYQYNCmGUhmVojGjMzDpXc++9984XgnHWZju0S78GQtibRKqRaDSts8rKB9mzZ3IlxBanXN03HGOf4eNfOnjCNQR1XqxwxKMuSjq/+MUvZhJ0b0IgbgSCsPytntiNSpk4/cywUufRCvWGQNRvQbMTVB8I3/mpJd0OoWFKaDdhVYDckK80WBrU3xlTpFVriHlJh2HnUUcdNWZoW6DepZvpxVVAZhGvcu4PdDaG2spfGvfcc8+eJ4G+0HEEp6c3g8q3vOUgFnEy1tNcaCkM4g5DYfsgOHpQ79CMLMplm6IV6OX7KzxAm6DRiIMGM65gp2IUdjI67Yex01WISANyiAotg2BLu8ZJ0Nv5gpN2YSIDZC4shOdwHGlkI5Nf9xECrbQcylKA7IsGwwiv46ClKGPLcKTTc/ELWwMUL+M3z7g0BumnCQqrpLs3G6nvEbwOqC9Nr5C+dKhny3SEj6D80jIRcBPIkOaqPGiTbInKhdZUwCsO8hOe/Ahf+Sr70lkIxz1E5BKfDsJyIO/rPOSzP0BqLnXiyD92RvXRhPJ0RoN0W7RuAkGadWzI3fkQ/YF6UG46SR2Q/AfGjo7cqqUSDTvNfBpuWKHtYlw2G0fV32233fIskROBCJWZNURoBTehcUKVcAisGU8nCiEMEK7hIpfSYGiHOBGHSQuCp8dHloZ/BF8j0HidWlQ0N6Rr2OQEcSRB2zRxgCgNtRAI0jHjpsEaesmPGTfxm+nyjiFcK5CIBqPX1mCRBrfm0oaUhOO+X/lypFzJX4HGbihjxlHa5U8YZV2XcJSN4apyMylicTVZcLiN/MuH4b4ZUHlV9sqjFdLKaK7xisfsnoaoUdMKC2giOiNlr0zMWKtX5W6o6m9ppdU1UTRg5ITgdBTSp+4Y3ZWxskFOhozIT0enXsl38agrz2ZFyYy00J51NPKnjsvh0UwlZsTlSz3rSJWZNCIa28+U1+jRo3NcRhvI3+HNzbWTJd2+UVfqnSyTEes8y2FJyFYdN8uqCd8rV/F7Tx4QN9kzw+s+MnVSls5a+Zg8YsqYVKCM1CsZ0HGp147di0ooNHwNjWAhFcOtj370o1mDK9Px3iOktAzv0JK23XbbLNSg50ZWlnsYxgFB8Nw9IJDC8dz3NAGNj+AQwDJk04BKwwUCpnGVtPjONwigpFXDQMS+Uca0EFqEuGhJ3hF3K0q6NRrfs9mIS9i0L2Wi8YjTcKXdnsMyBPQe8qXlWZUvL+KkWSBFM3I6BYdpl/TJh2Gib70vTh5rkXTRhpoQv/JXlhoZopRW8TeXKigH5aXsxaMelJV4hEvz3m677dpqtcpCfcg7jUberfpn11NGgIDtPlE33ldu8kE+xGGZjL/loxwOI+/qW4eA1Jz7Kk3yIu9+pdl3wiQD4tB5yTONX90iN9+1QlqkW5waH5mmUZONAvG7r/zbQVnSdqVROrbffvucV2kv6ZJG9aAcjSakk/15UkE7gguHl4FAoCuA1IxWjNp0BOy1HWeDCwQCgYFCEFwgEOhaBMEFAoGuRRBcIBDoWgTBBQKBrkUQXCAQ6FoEwQUCga5FEFwgEOhaBMENEewksB3HIsRAIDA0CIIbIth7yJGjfY2BQGBoEAQ3RLBX0F7CdnssA4HA4CAIbohgMzg/XmVTeCAQGHwMW4LjOYDXAL/jC5tzbcrtLYzir60duKTp7Vk78PDQzmsIx488YxS/ce3AflccJjZteH2lLxAIdJg/OL69+LoyjONipoADRD7LEAT3Ndz7FFfXfHhxF8PdDHAsyM7FjY0wkBc/ZhwE+p6LHqdFISj+1Pjx4hqoeYIRcGTIdxf/YMKQJsNMcXPJwn8av2bc/3iGePhNU47FnRAC5qOOqxvxio97It/wm8bvmF9p4ANNeoXle8RX4uI3jntz8UkXV0Nc9Egf32jIUf6VQyAwqUI77Wh/cAiAe20+xPjG4r9LIvmg52qbs0nkwLU2f/sIhRNBs5N8qyEHDZ6bag4L+evS+B1dx9Muj7aIgM8txIKkOAbkV4ufsAIakxO1+L/nHJPTR/7N+PNCwM4pUJDC4GhTWhXoJz7xieyjzHsIyolX++233xh/dc5H4GuMPzMnYTmtiUNGzh7lA2lzLS4f0vCTn/wkn74kHgTHkaN08rfGfThX28UpKNJj4wsEJlW0I7iOGqJyqoggHCtXhl40FqTFESXHgzzc8vnkDAFuyx3xRrNBSCBjtLMy7EQ0hqFN0LYQHV/9vuP4sQlx856K+BxectBBB40hQI4OOZh0/+ijj85anfgRIOIxU1qGnLzTIh7ftAOX43vttVdOgzgQNY0PHFPHQy6HmI7dQ3ScM3LSKD8qkiNJeZCO/rq+DgQmJXQUwRlC0nJoLMihMDIi0LAN9WhiPKFyJY50EB8PsLSbcQHvtsiUF1TD2SZoUA73MGwULsd53kGWhsuGuM5BoBlygV3OzOSG21mZtELusA2haZ1l+NwKcXA5LQ0Oo+GBVXhAg0O0SJPGJ63Kh7anHLgdNzynybLNuRcIBN6JjptkMJzjYpqGpAHz6U87Maxkm6K9aOjFzgUIhNYG5T4yGl/QyhCtQ28cEkJLdMCzOBAeGx9i5d4a8VGFgQaKtPjpR3TSwlMy+1s7NO2MrTY0tkbhFjsjjZJNjntuw3RnKziXwhDVkYC02pKOQCDwNjqO4Ggizg2gPdFOHOzhAJJy7BtNx6Et7Fs0HI3fgSFsV1AmEhwWghBoV0hgXIAoXLRGwz9DQwTCsM9OyJZHg0JeTe0PKbEhGlI77IUd0LfjA5oiWwKyZPOTDqc3OeyEZkvDE/4JJ5yQyd9hN4beykMaPQ8EJnV0HMGBhusAFJMFhmfIq2hmzrx0YIujBQ0RaVeGtIcffnh+brhnkoLd6owzzsi2K0Z45FPCoAH1plUBLRFhGA6byPA/+5+hq/DZAZGYo9+citXUJtniaHaIxq94C0yaFDT/bgd5Q46G3zQ9Q1k2R+WB+KRP/qQPsTlsRLn4zkSGMgkEJnV07KlahmtmT00msJcVaMT+L2eCeo+B3iwq0ODkhw3MsM6pQsjSTKfJBGRBq3NiV3PmtAmERftzvFs5ad3EgllK34jX8hFxIx4nJgm/wFIQM7iIphAprcsSFkNbw9Gnn346Tz6Uk73APce8uW8oLO00Re8gNmkqy18sMWGPkw75LSdrmZQRF023r8OOA4FuQ7HZN2dRO/JULQmzjMKZnc5BbT3QGLxjGIbwaGTtoLG3+7a/MBNqqNgahkkH93vrFBQwex2yHV/QHmmw7Ho0UhAvMnVUnrClz1C8SdTiVi60zbFpiYFANwGpDYtTtcwkauDOfuyNoGhGNKHeyA0mhNyAptQuDKTal8YrTRNCbkAro7U5i5SW6DJ7zC5Zhp/S16qFitui5SC3QKADbXBYmG3LMI/9aVKF9XAIzJDWrDK7ZCEzqnggEBg7Oo7gaG+Gpfvss88kbUNiUzRLfOqpp6bzzz8/Tx6YMS02uUAgMHZ0HMFZ0sEmuPnmm/fcmTSx6qqr5l0OCB+52dJl0bDlIr0tHA4EAu9ER04yBN4JTgjY9JpLTgKBwDsxbCYZAu+EyYYgt0Bg3BEEFwgEuhZBcIFAoGsRBBcIBLoWQXCBQKBrEQQXCAS6FkFwgUCgaxEEFwgEuhZBcIFAoGsRBBcIBLoWQXCBQKBrEQQXCAS6FkFwgUCgaxEEFwgEuhZBcIFAoGsRBBcIBLoWQXCBQKBrEQQXCAS6FkFwgUCgaxEEFwgEuhZBcIFAoGsRBBcIBLoWQXCBQKBrEQQXCAS6FkFwgUCgaxEEFwgEuhZBcIFAoGsRBBcIBLoWQXCBQKBrEQQXCAS6FkFwgUCgaxEEFwgEuhZBcIFAoGsRBBcIBLoWQXCBQKBrEQQXCAS6FkFwgUCgaxEEFwgEuhZBcIFAoGsRBBcIBLoWQXCBQKBrMeIHP/hBtcoqq6QVVlih51ZgOOPNN99Kr73+Vnr9jbfqv6v0VlX1PAkMBEaMGJEmn2xEmmKKEWmqkZOnyScfke8FJj7eeOON9NOf/jS9+OKL6ZVXXkmvvvpqEFw34NXX3kxPP/9aev6F19MTT7+SHnz0pfTYUy+n5198PZNdYOCA0KabZoo0+8xTp/nnmjbNMdvUaabpp0wz19f0043seSswMRAE12V49oXX0sOPv5RuuvOZdOk/H0nX/PvJdM8Dz6eXa8Kr3qoS3S0UuIFFUdYmq/+YbLKU5p1z2rTKMrOldVeeK625whxp3jmmTbPMNGWaYvKw/gw1guCGOaqarWreSs/VxHbHfc+lS/7+SLrwsgfS1Tc+0fNGYGIB7y003/Rpk3fPn9631rxp5aVmTbPPMnUaOUUQ3VChHcFNvsUWWxw+zzzzpLnmmqvntUCn4uVX30y33PVM+tnv7k3fPOfmdP4f7k33P/xiz9PAxMYzz7+W/vHvJ9JVNzyWHnnylWyjm2PWt0ku7HSDj7feeivddNNN6fXXX89k9+abbwbBDRc889xr6eLLHkwn//Dm9P/+eF+658EX0pvUuUDH4dnnX0/X3vxkuvWeZ/NEzxyzTpVmmHZktt8FBg/tCC705w7HWzWJPf7UK+nMn9+ejvjudekPf3sok12gs8H2ieRO+sGN6atn3piuu+2p9Nrrb/Y8DQwVguA6GJZ4PPLEy3k4SnO764Hne54EhgserTunn/323nTc6Tekf93yVK1ZxKz2UCIIroNBU/v+ebem086/LT3+9Cs9dwPDDa+89ma66LIH07GnX59uu/fZPFkUGBoEwXUonnvxtXTuhXelsy64Mz33wus9dwPDGb+74qF03Bk35KU9gaFBEFwHwm6E31/5UPrOj28Nza3L8PM/3Je+d95t6aVX3ui5ExhMBMF1IO596IX09bNvSvf854WeO4FugYnv08+/PV341wfydrrA4CIIrsPwct2zn3LuLem6W57suRPoNjz93GvpW+fcnO66/7meO4HBQhBch+FvNzyezv7VnbmnD3Qvbr772XTBn+7L+4gDg4cguA4Cu8zZv7gzvfRyCH2348WX30gXXvZg3nIXs6qDhyC4DsJ1tz6VrrzusZ7/At2OO+9/Pl3+r8fSG28GwQ0WguA6BGZO/3LNw+mpZ1/tuRPodljneNX1j6Unn4mZ8sFCEFyH4IlnXs0r3Yd6+cDIkZOlGacbmaafdoo0core90p65h2+0KboZU/ltFNPPsadUCtsOJ+yjstzDiOnnmrytpd3QBxTTfn2+wXT1OG3g3e820zXSN/XYdVRvQPeFU9zX6g4W9Ph6qs8Bgo33P509t8Xo9TBQWy27xD8+46n008uvic9+uTQ9OZTTzl5WmDu6dJqy86eNlxznrTUwjNnh41mcV959c0xDU4jX3Du6dMqS8+W1lt17rT0IjOlmWaYMmuc3n2rsdJhs/UXyFuRzBI2gXjWWnHO7E7Is7lnnya9uw5ryYVmTEuMeuc160xTpYcfezmtsOSsadnFZskaLS8qSGjz9yyYHnrspbwzoIk5Zpk6vWeNuWuCnSI9+fSr2QmB710vvvR6ev6l/3Ya/Le9t86v/D1Zh+13vdXmSivW77amhbsjS3YGE8+/+FraYI150pILz1ST7+ATajcjvIl0MK68/vH08z/dl43Pgw3azibrzJeO2GuV9KltlkxrrzRXeu+75kmbrbdAmnO2qdNt9z6XiYjPxvVWmzsd8IkV0v67Lpc2rN95f/3dVu9bqCanmdJ/arKxKr+Q3En7r14T11xZE+VhuGCGmjhPO3yd9K4V5kh/v/GJtNJSs6Zj9lk1bbLu/Gnz9y5YE9cCddjzpo3q8OecdZr0l388kg7+5Ippu00XSZdf+1gdx8tpulp7/NnXN0ivvvZWuuXuZ/JvwVorzZF+eNx6aZYZp0yXXvtoeqkuw8/vtEz63I7L5P27N931TH6PNrflRqPStw58Vy38Vbr6xsdzOKcevFb6xFZLjEnD+9eeN18r1uk8+5d35W8HC+xvyy0+S1q97mjCd9yEIbyJdCh4DHn0iZeGzEvIRmvNm0764hppucVmTjfWQ6TzfndP+sWf70/31drKmsvPkRZbcIb83irLzJ6+f9ja6b21hnHr3c+m31/xUPZmcvt9z9VhzJOO3nuVtHKt2ZVh4DT1sA5pHfLpFdNiC8ww5j7NZNp6aDtNrWFNVt80c3jOr+9K5/32nvRITV6UxT9d9VA6+1d35R0cvvOu4bDhbA6jvuafa7q0z8eWTh/74KJ5WF3Aey4SzeH3xDlVraFON83Id5JG/YwmyHWRISivvGBoXdV8+ZdrHslpKNcv/nR/fj7YuLsm4VfDtfygIAiuA8CNzpPPvDok5yfMMN0UWTvSyA2JP3HYFekLJ1ydPnvU39Ke9fWVk69Nl/3z0UwgB39qxTxM+/kf702fPfaqtPOBl6btv/jXtM9xV6Vf/+WBrIntvPliaZZ6WFnAprfpu+dPe26/dJqvJqR2uLbW8I76/vXpq2fdmP5959Pp2Vrb+79f3pmOOPW6NPpXd/a81R5zzz5t2rsmuS03HJUJdaDwzPOvph9fdHc6uk5Xub71o1t6ng4uHqq14NjVMDgIgusA6L2ff2loNtSzudG6br3nmXTWz+9I9/V4BGaLsvj0kqsfTi+98mZafvGZ07qrzJltXif94N9Z03uzpw1ee/NT6Wv/d1PW5NZcfvY0ap7/Ehm73IOPvpjddu++5eJp7tmm6XkyMHjkyZey/W+vmuTeVw8jaWIDgSlHTp4WHzVjLp9yDRV4ApanwMAjCK4DwB40VKdfrVoPO+H+R15Md/SxVWih+eohZj3es1brjvpqxQP199ff9lRapB6Kcstd8PyLb9RDz3vTDbc/lXaqtbu9dlj6Hc8nFLfe81w67fzb88TFYZ9ZKW267nx5iDmhYL/babNF0xGfXWnMNVR49dU33zFZExg4BMF1AJiChmoC7e2ztt62afWFcp6qn2LXagL50XrMWDYbp/9vvvuZvJ/2rgeeS7t/dPG03y7LDdhwMu8A+OsD6awL7kizzTxVTUQrZ5viuIJxv3lmrHSbsTWhUa6hAlvgUNX/pIYguA4AI7llG0OBa295sm7cb2XNa4UlZum5+zY0srKWzPIIWuVKS81SvztjvteEJSYrLD5LnqV87Kl3Lm0xafK36x9Ph55ybR7i7vShRdOidXwDBctGTv3xrdnTsSUiu3x4sZ4n/wXCstYtr6XruQfTTTsyp8/iWsthCpwn+80f3Zw+efiVY66hwjTTmBwJhhsMBMF1ADRCa8uGQsSvufGJfPLTUgvPlD659ZJp9eVmT/PXZOVad5W50kc2GpXmmm3qfJ7A1Tc8ng81Ntmw+vKzp3nnnCavI1trxTnSfrsum0bNN3264trH6uHq/64VoxxddcMT6eBvXVuT5fM9euPAAYF9Y/TN6Xs/uy07BG3dz4l4zdzK07KLz5zmm2vatHxNyJusM2966rlXsyuqVrMAkjFrWy71MhSYvdZEnZQfGHgEwXUADPXmnHXqXlfqDyReeOmN9NUzbky33fNs+vAGC6ZjPrdKOqQmMJe/v7LHCmm5xWbJ68MclmKW831rzZNO/MJq6aBPrpjJ7sT9V0/vX3u+dOk/Hk0//e099dCu9+UtF1/+nzwjeWs9bG0OCceG/m5AP+Xcm9OPfnNXrYG9+o7w//z3hzORv69Op2GsdB+19yp5wbJnCLwJHYyZ2X13WmbMtcvm/6sZDgZow7EGbnAQC307BGw+l137aHp2CNyTP1gPG20PojIutuCMadlFZ06j5p0ux33x5Q/mZSIW+ppIuP+hF2ttKeUZRsRnqEnzufjSB/NZEdfUJFJ4xeJhI60//O3hdzjrRKZmZmeuSeTyfz2aTwkDa9LWqDVD69V+VxOhhcNgDRsisq7NWQZ2d+gEtt1k4bzj45KrHxmzIPrlOlwLf50m/8JLr6e/XPNovicvD9bpN8Eh3TRWJMZt+PfPuy3dVBP3mHSvO1/eQTFq3unzDHO5dDrnXnj32y8NEtg3t910kboc5simisD4o91C3zjZvkNw4+1Ppb2OuSqv9B8K0BjmmePtIeeCtQZhqQLiMbvK2F4aP8KytWrUPNPXQ9dpsv2OG3VLQZz41ZxgWHHJWfKyjTvvez5vg2pipulHZpIxI1scCrD3IdgZ62cOY3GeKNgetugC9f3pRqZbanJ8/sXXsz1tnZXmzOsFzf42h5cGd4uNmqF+f8p0Y02A5RkCRVoLzD1tttU99NjLdf5eyMTdTLf1fM2FwwW0XTbLwYSJkrOOWjcveQk73IQBqbWebB8E1yHQiPc+9qq8q2ColwwgFLOKYxsVskuZhR3f9E1WKyjiGFs84wPc4GqXNveR6etvDELEEwj2zFMOelfedxuYMLQjuNCJOwS2Gq1dayi0kKGGht8f0mldEjKu8O1gkBsIt7e0edaJ5KbDMBTubcdHYMIRBNdB2GCNubMtLDBpYO45psmzvGyTgcFBEFwHYfFRM6VN1pm/7tl7bgS6FrQ3EylrLDd0W8ImRURT6jDs/OFF08LzD9yi2EBnYvZZpkqbb7BAnuQJDB6C4DoMi9Tkttf2S2dXQYHuBSeXHITa8hYYPATBdRj4Ttt1i8XSh+re3TAm0H2Yr9baPrv9UmmWGf/rZiowOAiC60BMPdUU2YPu8kvMMiTbtwJDB4uHj95nlbT6cnP03AkMJoLgOhSLLzhj+sLOy6YlFpoxhjFdAGvxLJjee4el846MwNAgCK5DYbvSxuvOl/baYZm8TSo4bvhC3RmWMj3s/tElMtkFhgZBcB0Mnjy2ev+otO+Oy9Sa3EzhcWIYApk5TWz3jyyRPrnVktmxZpyeNXQIgutwMERvvfFC6bh9V03rrTJ32z2Tgc7EFFNMlk8f23enZfPpZfb+BrkNLYLghgGmn3ZkPq7v/45ZNzt3XHDuafP+0UDnwib6971r3nTyAWum3bZcPHsrCXIbeoS7pGECniZ4o11n5bmyN16b452CzzWQXZaDtccz0D/gLhv6Z62JbaWlZku7b7lEOmqflbNpIZb7DA3i4OcuABdASy8yc1pzhTnSwvNPn2acfso0lbMRek5larrcCc4bHChi7pumrIeg3ENZlG3WW+ez9fsXTnvtsFTa5N3zp2mmisXaQ4nwB9eFeOzJl7MvNUf4OVCZr7NH63u87DrCL87bHFhYsoO4Zp5hZHamaXZ04flmSEstMlPW1hacZ7pwXDmREP7guhgcUToZnydevuUMXzl+dMBKYOBAe3O4tVPC2EZ5CZ5tpqnysp7AxEUQXCAQ6FqEw8tAIDBJIQguEAh0LYLgAoFA1yIILhAIdC2C4AKBQNciCC4QCHQtguACgUDXIgguEAh0LYLgAoFA1yIILhAIdC2C4AKBQNciCC4QCHQtguACgUDXIgguEAh0LYLgAoFA1yIILhAIdC2C4AKBQNciCC4QCHQtguACgUDXIgguEAh0LYLgAoFA1yIILhAIdC2C4AKBQNciCC4QCHQtguACgUDXIgguEAh0LYLgAoFA1yIILhAIdC2C4AKBQNdishEjRvT8GQgEAsMfTU6brKqqnj8DgUBgeAOfNTktE1yQXCAQ6CYUXgsbXCAQ6Bq0KmyTvfXWW6HBBQKBrkDhs3LlIeqbb76ZHwQCgcBwxRtvvPEOgoPJkNuLL76YXnvttXwjEAgEhiOefPLJTHDlyhqcPzx47rnnxrBeIBAIDCdQ1O6+++786ypa3GTUumeeeSY9/PDD6fXXX+95PRAIBIYHENkTTzyR7r///jEEN0aDQ3Avv/xyuvPOO9Njjz0WQ9VAIDBsgMyMPm+66ab0wgsvZCWtSXCTb7TRRodb+YvYaHKTTTZZmnLKKfNqYH/HTodAINBpKIoZpezGG29M9913X3r11VczwTUnG0Ycd9xx1RRTTJFJbeTIkfmac84504ILLphmm222/H+T5PydPwziCwQCg4jCM36b8D+t7aGHHkoPPvhgniRFbJQ05FaGqfn7Y445ppp88smTC9G5yt80uHIVQmtGGCQXCAQGA60c4/9y0c5cSAyhFVIrv+W5d0ccddRRlUAKybkQWvn1rFzgtzXyQCAQGEgUjmmiEFy5Cpn5LVchNr8w4ogjjsgE16qtNcnN3z4KQgsEAhMTTfJqklm5ms8zZx1++OGZ4Hq7IAguEAh0AvCQCwqhNS9o/p0JLv9Vo0lqBc17fsuHgUAgMDHQJDAof7f+ppTS/wcUyfyz0f4R8wAAAABJRU5ErkJggg==;" parent="WIyWlLk6GJQsqaUBKTNV-1" vertex="1">
          <mxGeometry x="770" y="380" width="312" height="428" as="geometry" />
        </mxCell>
        <mxCell id="z_6pDSbNV-KYUhVB-wk2-28" value="" style="edgeStyle=orthogonalEdgeStyle;rounded=0;orthogonalLoop=1;jettySize=auto;html=1;" parent="WIyWlLk6GJQsqaUBKTNV-1" source="z_6pDSbNV-KYUhVB-wk2-23" target="z_6pDSbNV-KYUhVB-wk2-27" edge="1">
          <mxGeometry relative="1" as="geometry" />
        </mxCell>
        <mxCell id="z_6pDSbNV-KYUhVB-wk2-23" value="Continue" style="whiteSpace=wrap;html=1;fillColor=#dae8fc;strokeColor=#6c8ebf;" parent="WIyWlLk6GJQsqaUBKTNV-1" vertex="1">
          <mxGeometry x="440" y="840" width="120" height="60" as="geometry" />
        </mxCell>
        <mxCell id="z_6pDSbNV-KYUhVB-wk2-30" value="" style="edgeStyle=orthogonalEdgeStyle;rounded=0;orthogonalLoop=1;jettySize=auto;html=1;" parent="WIyWlLk6GJQsqaUBKTNV-1" source="z_6pDSbNV-KYUhVB-wk2-25" target="z_6pDSbNV-KYUhVB-wk2-29" edge="1">
          <mxGeometry relative="1" as="geometry" />
        </mxCell>
        <mxCell id="z_6pDSbNV-KYUhVB-wk2-25" value="Close icon" style="whiteSpace=wrap;html=1;fillColor=#dae8fc;strokeColor=#6c8ebf;" parent="WIyWlLk6GJQsqaUBKTNV-1" vertex="1">
          <mxGeometry x="140" y="820" width="120" height="60" as="geometry" />
        </mxCell>
        <mxCell id="z_6pDSbNV-KYUhVB-wk2-45" value="" style="edgeStyle=orthogonalEdgeStyle;rounded=0;orthogonalLoop=1;jettySize=auto;html=1;" parent="WIyWlLk6GJQsqaUBKTNV-1" source="z_6pDSbNV-KYUhVB-wk2-27" target="z_6pDSbNV-KYUhVB-wk2-42" edge="1">
          <mxGeometry relative="1" as="geometry" />
        </mxCell>
        <mxCell id="z_6pDSbNV-KYUhVB-wk2-27" value="&lt;span style=&quot;color: rgb(23, 43, 77); font-family: -apple-system, BlinkMacSystemFont, &amp;quot;Segoe UI&amp;quot;, Roboto, Oxygen, Ubuntu, &amp;quot;Fira Sans&amp;quot;, &amp;quot;Droid Sans&amp;quot;, &amp;quot;Helvetica Neue&amp;quot;, sans-serif; font-size: 14px; text-align: left;&quot;&gt;promo will be added to each applicable line&lt;/span&gt;" style="whiteSpace=wrap;html=1;fillColor=#d5e8d4;strokeColor=#82b366;" parent="WIyWlLk6GJQsqaUBKTNV-1" vertex="1">
          <mxGeometry x="440" y="930" width="120" height="60" as="geometry" />
        </mxCell>
        <mxCell id="z_6pDSbNV-KYUhVB-wk2-29" value="Close modal" style="whiteSpace=wrap;html=1;fillColor=#dae8fc;strokeColor=#6c8ebf;" parent="WIyWlLk6GJQsqaUBKTNV-1" vertex="1">
          <mxGeometry x="140" y="920" width="120" height="60" as="geometry" />
        </mxCell>
        <mxCell id="z_6pDSbNV-KYUhVB-wk2-32" value="" style="edgeStyle=orthogonalEdgeStyle;rounded=0;orthogonalLoop=1;jettySize=auto;html=1;endArrow=none;" parent="WIyWlLk6GJQsqaUBKTNV-1" source="z_6pDSbNV-KYUhVB-wk2-15" target="z_6pDSbNV-KYUhVB-wk2-31" edge="1">
          <mxGeometry relative="1" as="geometry">
            <mxPoint x="500" y="637.5" as="sourcePoint" />
            <mxPoint x="500" y="710" as="targetPoint" />
          </mxGeometry>
        </mxCell>
        <mxCell id="z_6pDSbNV-KYUhVB-wk2-31" value="Yes" style="text;html=1;align=center;verticalAlign=middle;resizable=0;points=[];autosize=1;strokeColor=#6c8ebf;fillColor=#dae8fc;" parent="WIyWlLk6GJQsqaUBKTNV-1" vertex="1">
          <mxGeometry x="480" y="659" width="40" height="30" as="geometry" />
        </mxCell>
        <mxCell id="z_6pDSbNV-KYUhVB-wk2-34" value="" style="edgeStyle=orthogonalEdgeStyle;rounded=0;orthogonalLoop=1;jettySize=auto;html=1;endArrow=none;" parent="WIyWlLk6GJQsqaUBKTNV-1" source="z_6pDSbNV-KYUhVB-wk2-4" target="z_6pDSbNV-KYUhVB-wk2-33" edge="1">
          <mxGeometry relative="1" as="geometry">
            <mxPoint x="200" y="330" as="sourcePoint" />
            <mxPoint x="200" y="410" as="targetPoint" />
          </mxGeometry>
        </mxCell>
        <mxCell id="z_6pDSbNV-KYUhVB-wk2-33" value="CTA" style="text;html=1;align=center;verticalAlign=middle;resizable=0;points=[];autosize=1;strokeColor=#6c8ebf;fillColor=#dae8fc;" parent="WIyWlLk6GJQsqaUBKTNV-1" vertex="1">
          <mxGeometry x="175" y="350" width="50" height="30" as="geometry" />
        </mxCell>
        <mxCell id="z_6pDSbNV-KYUhVB-wk2-36" value="" style="edgeStyle=orthogonalEdgeStyle;rounded=0;orthogonalLoop=1;jettySize=auto;html=1;endArrow=none;" parent="WIyWlLk6GJQsqaUBKTNV-1" source="z_6pDSbNV-KYUhVB-wk2-16" target="z_6pDSbNV-KYUhVB-wk2-35" edge="1">
          <mxGeometry relative="1" as="geometry">
            <mxPoint x="440" y="740" as="sourcePoint" />
            <mxPoint x="200" y="828" as="targetPoint" />
          </mxGeometry>
        </mxCell>
        <mxCell id="z_6pDSbNV-KYUhVB-wk2-35" value="CTA" style="text;html=1;align=center;verticalAlign=middle;resizable=0;points=[];autosize=1;strokeColor=#6c8ebf;fillColor=#dae8fc;" parent="WIyWlLk6GJQsqaUBKTNV-1" vertex="1">
          <mxGeometry x="475" y="780" width="50" height="30" as="geometry" />
        </mxCell>
        <mxCell id="z_6pDSbNV-KYUhVB-wk2-37" value="CTA" style="text;html=1;align=center;verticalAlign=middle;resizable=0;points=[];autosize=1;strokeColor=#6c8ebf;fillColor=#dae8fc;" parent="WIyWlLk6GJQsqaUBKTNV-1" vertex="1">
          <mxGeometry x="175" y="750" width="50" height="30" as="geometry" />
        </mxCell>
        <mxCell id="z_6pDSbNV-KYUhVB-wk2-47" value="" style="edgeStyle=orthogonalEdgeStyle;rounded=0;orthogonalLoop=1;jettySize=auto;html=1;" parent="WIyWlLk6GJQsqaUBKTNV-1" source="z_6pDSbNV-KYUhVB-wk2-42" target="z_6pDSbNV-KYUhVB-wk2-46" edge="1">
          <mxGeometry relative="1" as="geometry" />
        </mxCell>
        <mxCell id="z_6pDSbNV-KYUhVB-wk2-42" value="BAU" style="rounded=0;whiteSpace=wrap;html=1;labelBackgroundColor=none;fillColor=#dae8fc;strokeColor=#6c8ebf;" parent="WIyWlLk6GJQsqaUBKTNV-1" vertex="1">
          <mxGeometry x="440" y="1040" width="120" height="60" as="geometry" />
        </mxCell>
        <mxCell id="z_6pDSbNV-KYUhVB-wk2-44" value="" style="edgeStyle=orthogonalEdgeStyle;rounded=0;orthogonalLoop=1;jettySize=auto;html=1;endArrow=none;fillColor=#f8cecc;strokeColor=#b85450;" parent="WIyWlLk6GJQsqaUBKTNV-1" source="z_6pDSbNV-KYUhVB-wk2-15" target="z_6pDSbNV-KYUhVB-wk2-43" edge="1">
          <mxGeometry relative="1" as="geometry">
            <mxPoint x="570" y="577.5" as="sourcePoint" />
            <mxPoint x="640" y="1050" as="targetPoint" />
          </mxGeometry>
        </mxCell>
        <mxCell id="z_6pDSbNV-KYUhVB-wk2-43" value="No" style="text;html=1;align=center;verticalAlign=middle;resizable=0;points=[];autosize=1;strokeColor=#b85450;fillColor=#f8cecc;" parent="WIyWlLk6GJQsqaUBKTNV-1" vertex="1">
          <mxGeometry x="660" y="659" width="40" height="30" as="geometry" />
        </mxCell>
        <mxCell id="z_6pDSbNV-KYUhVB-wk2-46" value="END" style="ellipse;whiteSpace=wrap;html=1;fillColor=#dae8fc;strokeColor=#6c8ebf;rounded=0;labelBackgroundColor=none;" parent="WIyWlLk6GJQsqaUBKTNV-1" vertex="1">
          <mxGeometry x="420" y="1170" width="160" height="80" as="geometry" />
        </mxCell>
        <mxCell id="z_6pDSbNV-KYUhVB-wk2-49" value="No" style="text;html=1;align=center;verticalAlign=middle;resizable=0;points=[];autosize=1;strokeColor=#b85450;fillColor=#f8cecc;" parent="WIyWlLk6GJQsqaUBKTNV-1" vertex="1">
          <mxGeometry x="240" y="669" width="40" height="30" as="geometry" />
        </mxCell>
        <mxCell id="z_6pDSbNV-KYUhVB-wk2-54" value="?&lt;br&gt;after close modal will it continue or stay on current page" style="text;html=1;align=center;verticalAlign=middle;resizable=0;points=[];autosize=1;strokeColor=#b85450;fillColor=#f8cecc;" parent="WIyWlLk6GJQsqaUBKTNV-1" vertex="1">
          <mxGeometry x="-15" y="980" width="320" height="40" as="geometry" />
        </mxCell>
        <mxCell id="POx092L-ZvUeZzMWLNh_-0" value="?&lt;br&gt;how can we check" style="text;html=1;align=center;verticalAlign=middle;resizable=0;points=[];autosize=1;strokeColor=#b85450;fillColor=#f8cecc;" vertex="1" parent="WIyWlLk6GJQsqaUBKTNV-1">
          <mxGeometry x="-25" y="562.5" width="120" height="40" as="geometry" />
        </mxCell>
      </root>
    </mxGraphModel>
  </diagram>
</mxfile>
